/* XPM */
static char *ed7ddcb4d0fb4862c4a2b5a79f5e4ff9kNpcq0bM0mezpZlf[] = {
/* columns rows colors chars-per-pixel */
"32 32 38 1 ",
"  c #A7E05F",
". c #A9E060",
"X c #A8DF5F",
"o c #A8E160",
"O c #A9E261",
"+ c #AAE362",
"@ c #ABE463",
"# c #AEE766",
"$ c #A5DE5D",
"% c #A2D959",
"& c #A4DB5B",
"* c #B2EB6A",
"= c #ACE564",
"- c #AFE867",
"; c #B6EF6E",
": c #A3DC5B",
"> c #A5DC5C",
", c #A2DB5A",
"< c #9AD151",
"1 c #9FD656",
"2 c #B0E968",
"3 c #9ED756",
"4 c #99D050",
"5 c #A3DA5A",
"6 c #A4DD5C",
"7 c #A0D958",
"8 c #A6DF5E",
"9 c #ADE665",
"0 c #B1EA69",
"q c #9FD857",
"w c #A5E15F",
"e c #99D251",
"r c #A7DF60",
"t c #A8E061",
"y c #B3EC6B",
"u c #9DD655",
"i c #98D150",
"p c #A1DA59",
/* pixels */
" .X                           oo",
" XX    o              o         ",
"       o    o   Ooo      o     X",
"      o   oo+@oo@#@o           X",
"$%& oo  oo o#*=o-;-ooooo oo :%> ",
",<1 ==oo+@oo=*- =2=oo@+oo@+ 345 ",
"676+--=o+=@@o@@ooo @@=@o@--+:76 ",
"   +--=ooo@=ooo 8 o@@ooo=--+    ",
" o o@=o  8oo       o    o=@o    ",
"o o oo           o       oo o   ",
"    ooo                 ooo o   ",
"   o+-=o            oooo=-@o    ",
" ooo9;0.&q: ooo 8  o=2=o2;9ooo w",
"o@9o@#=X%eq o@=ooo O2;#O@#@o@@ow",
"O--9ooo 67: o+@o@@ o@#@oooo=2-+o",
"+--@o      @=ooo++=@ooo   o@--+o",
"o+@o     oo+=oo8oo++oo    oo++o ",
" oo        oo8    oo  8     oo  ",
"                ooo      o      ",
"  ooo     o :6 o=2=oo           ",
"o ooo     6,:$ o@9@== :6  ooo  r",
"  O@9o    $8    ooo++ $$ o9@o  t",
" ooO@o           o oo    o+Oo   ",
"   oo                     oo    ",
"   8 o                   o      ",
"o   ooo ooo   o    o    o o   oo",
"#ooo@0#o=y9o oo  oo ,u:o9*@o o#@",
"-#oo+=+o#;2oo=9oo#=oqip +=+oo#-2",
"2@@9oOoO+9@oOO+o#--=$,$ oOo9@@0#",
"OO++o   ooo=9ooo@--+      o+Oo++",
"o oo     8OOOoo o++o  o    oo ot",
"           oo    oo      8    or"
};
