/* XPM */
static char *_0a2d1980e9a43f5b9e5678ca7cebbd3zvQpJLGZQ2UMVfuS[] = {
/* columns rows colors chars-per-pixel */
"32 32 14 1 ",
"  c None",
". c #101010",
"X c gray23",
"o c #485050",
"O c #984838",
"+ c #CA4828",
"@ c #D85838",
"# c #DB6648",
"$ c #E07A61",
"% c #A0A0C0",
"& c #D8C8F0",
"* c #DFD2F2",
"= c #ECE4F8",
"- c #F8F8F8",
/* pixels */
"                                ",
"                                ",
"                                ",
"                                ",
"                                ",
"                                ",
"                                ",
"                                ",
"                                ",
"              .XX.              ",
"            .X@++OX.            ",
"           .O+@@@++O.           ",
"          XO@#@@@@@+OX          ",
"          .@@$#@@@+++.          ",
"         X+@@#@@@+++OOX         ",
"         .O+@@@++++OOO.         ",
"         .Xo@+OoX+OOoX.         ",
"         .XXoOX-=XOoXX.         ",
"          .XXXo*&oXXX.          ",
"          .%**=oX=**%.          ",
"           .%&*==*&%.           ",
"            ..%&&%..            ",
"              ....              ",
"                                ",
"                                ",
"                                ",
"                                ",
"                                ",
"                                ",
"                                ",
"                                ",
"                                "
};
