/* XPM */
static char *result[] = {
/* columns rows colors chars-per-pixel */
"32 32 186 2 ",
"   c #020101",
".  c #0A0B0B",
"X  c #0A0E11",
"o  c #0C1218",
"O  c #131515",
"+  c #171B1C",
"@  c #21110F",
"#  c #271614",
"$  c #261C17",
"%  c #2D1E16",
"&  c #341D1B",
"*  c #382315",
"=  c #362A08",
"-  c #171F24",
";  c #1E2426",
":  c #22282A",
">  c #342326",
",  c #3B2A28",
"<  c #3B352C",
"1  c #262F34",
"2  c #3E2F3F",
"3  c #2A3131",
"4  c #27343C",
"5  c #383634",
"6  c #411212",
"7  c #521717",
"8  c #46221F",
"9  c #402614",
"0  c #433917",
"q  c #462925",
"w  c #552A28",
"e  c #4A3629",
"r  c #543C2E",
"t  c #482B32",
"y  c #453131",
"u  c #593739",
"i  c #612C2C",
"p  c #762121",
"a  c #713F2F",
"s  c #6A3B3D",
"d  c #7A4117",
"f  c #44433D",
"g  c #5B4336",
"h  c #6F5D29",
"j  c #705E26",
"k  c #654B3C",
"l  c #68583A",
"z  c #746424",
"x  c #2B3D49",
"c  c #593C49",
"v  c #623C45",
"b  c #693D44",
"n  c #713F45",
"m  c #364854",
"M  c #37434D",
"N  c #314C61",
"B  c #35546C",
"V  c #3A5A72",
"C  c #4F4041",
"Z  c #5A4145",
"A  c #5D5042",
"S  c #634B4A",
"D  c #6A4947",
"F  c #784247",
"G  c #695347",
"H  c #765641",
"J  c #7A5A4B",
"K  c #6F5558",
"L  c #745A59",
"P  c #7A6155",
"I  c #796356",
"U  c #5B5B65",
"Y  c #715E60",
"T  c #67666B",
"R  c #7B676A",
"E  c #6C6575",
"W  c #7D6D74",
"Q  c #71647A",
"!  c #6F707E",
"~  c #8B2D2C",
"^  c #A76E1D",
"/  c #907339",
"(  c #8D692B",
")  c #834549",
"_  c #84494C",
"`  c #8B484B",
"'  c #924C4D",
"]  c #94504F",
"[  c #91594E",
"{  c #845452",
"}  c #955050",
"|  c #965953",
" . c #A94F49",
".. c #A84D41",
"X. c #AD514A",
"o. c #A4524C",
"O. c #B45249",
"+. c #BC574D",
"@. c #AF5B57",
"#. c #AB5754",
"$. c #B75B54",
"%. c #B54E55",
"&. c #866742",
"*. c #9F654B",
"=. c #8B6454",
"-. c #85675A",
";. c #8B675B",
":. c #946859",
">. c #96745A",
",. c #A66F5B",
"<. c #BF645F",
"1. c #A6755A",
"2. c #8A5965",
"3. c #876B6A",
"4. c #987666",
"5. c #887175",
"6. c #957778",
"7. c #8B6C78",
"8. c #A9626A",
"9. c #B16A6C",
"0. c #AB7B69",
"q. c #A86D7B",
"w. c #AA7A70",
"e. c #BB7979",
"r. c #C0594F",
"t. c #C75E53",
"y. c #CC655A",
"u. c #C56258",
"i. c #DC6B5D",
"p. c #D66558",
"a. c #E56E5F",
"s. c #DE6F63",
"d. c #C0706F",
"f. c #E76F60",
"g. c #E77162",
"h. c #E87060",
"j. c #E8796B",
"k. c #E87F74",
"l. c #A68167",
"z. c #B28365",
"x. c #AD8C78",
"c. c #B58A75",
"v. c #AA907F",
"b. c #DF8279",
"n. c #C4987C",
"m. c #DBA47E",
"M. c #766D84",
"N. c #8A7B80",
"B. c #B37B84",
"V. c #A87985",
"C. c #9D8B83",
"Z. c #838295",
"A. c #AD8C84",
"S. c #B2828E",
"D. c #B69A88",
"F. c #B68C9B",
"G. c #B49F95",
"H. c #B597AA",
"J. c #B39DB3",
"K. c #B89DB0",
"L. c #BEA1AF",
"P. c #A4A2BD",
"I. c #BAA4B8",
"U. c #C08586",
"Y. c #CA9E84",
"T. c #C68B90",
"R. c #E08882",
"E. c #D7AA8E",
"W. c #D0A88E",
"Q. c #E7B99A",
"!. c #C89BA5",
"~. c #CDB2A3",
"^. c #D1ADAF",
"/. c #E3ABAB",
"(. c #E5BCA3",
"). c #E5C3AD",
"_. c #EBC4AA",
"`. c #F3CCB3",
"'. c #B1ACC6",
"]. c #B7B9D9",
"[. c #BCBDDC",
"{. c #D1B8C4",
"}. c #E3C6CB",
"|. c #D4D5EC",
" X c #E1E2F3",
".X c None",
/* pixels */
".X.X.X.X.X.X.X.X.X.X.X.X.Xc 2 2 2 2 2 .X.X.X.X.X.X.X.X.X.X.X.X.X",
".X.X.X.X.X.X.X.X.X.X.Xv _ ` ] ] ] ] } ` v .X.X.X.X.X.X.X.X.X.X.X",
".X.X.X.X.X.X.X.X.Xc F } $.y.y.y.y.y.y.<.o._ v .X.X.X.X.X.X.X.X.X",
".X.X.X.X.X.X.X.X.Xb X.t.i.h.f.a.a.a.a.a.p.#.n .X.X.X.X.X.X.X.X.X",
".X.X.X.X.X.X.X.X.XF t.s.h.h.h.h.a.h.h.h.a.p.F .X.X.X.X.X.X.X.X.X",
".X.X.X.X.X.X.X.X.X_ s.f.h.h.h.h.g.h.h.h.a.a.` s .X.X.X.X.X.X.X.X",
".X.X.X.X.X.X.X.X, _ i.a.h.h.j.b.b.j.h.a.a.i.' t .X.X.X.X.X.X.X.X",
".X.X.X.X.X.X.X.Xi  .r.i.h.b./.}.}./.R.g.i.t.X.s t .X.X.X.X.X.X.X",
".X.X.X.X.X.X.X.Xw O.O.+.9.T.{.^.!.{.!.d.+.O.O.i > .X.X.X.X.X.X.X",
".X.X.X.X.X.X.X.Xq  .X.@.9.F.^.S.e.!.K.B.@.#. .w @ .X.X.X.X.X.X.X",
".X.X.X.X.X.X.X# & ` @.B.F.H.K.S.S.J.J.H.B.9.' 8 @ .X.X.X.X.X.X.X",
".X.X.X.X.X.X9 * > v 8.J.].].[.[.[.[.[.].'.V.D > % * .X.X.X.X.X.X",
".X.X.X.X.X.X% r =.D c Q '.|. X X X X|.'.M.c Z =.l 8 .X.X.X.X.X.X",
".X.X.X.X.X.X% g >.u S K R W W E E W 5.5.K S C :.l e .X.X.X.X.X.X",
".X.X.X.X.X.X.Xq g A ;.;.;.-.L 4.4.L Y R 3.=.S k r .X.X.X.X.X.X.X",
".X.X.X.X.X.X.X.X, G z.c.v.6.;.E.E.4.R N.A.z.G y .X.X.X.X.X.X.X.X",
".X.X.X.X.X.X.X.X.Xr >.Y.~.G.A.`.`.D.C.G.E.z.k .X.X.X.X.X.X.X.X.X",
".X.X.X.X.X.X.X.X.X.Xg c.(.)._.`.`.).).(.n.l % .X.X.X.X.X.X.X.X.X",
".X.X.X.X.X.X.X.X.X.X$ J n.Q._.Q.Q.`._.Y.=.< . .X.X.X.X.X.X.X.X.X",
".X.X.X.X.X.X.X.X.X.X= ( &.I 0.E.m.l.-.l / j 5 u k .X.X.X.X.X.X.X",
".X.X.X.X.X.X.X.X.X5 f j / >.W J J W 3.o.^ z f P :.[ .X.X.X.X.X.X",
".X.X.X.X.X.X.X.X.XG P l ( 1.N.E U 5.8...d 0 k l.1.| .X.X.X.X.X.X",
".X.X.X.X.X.X.X.X:.c.x.l a o.q.Z.! q.%.~ 8 < -.0.,.[ .X.X.X.X.X.X",
".X.X.X.X.X.X.X.Xw.`.D.g w ` 2.! U 2.) i < T 5.{ .X.X.X.X.X.X.X.X",
".X.X.X.X.X.X.X.Xw.).D.f ; + . . X o o - 1 ; .X.X.X.X.X.X.X.X.X.X",
".X.X.X.X.X.X.X.X.X| { , O : 3 3 x N B V B 4 .X.X.X.X.X.X.X.X.X.X",
".X.X.X.X.X.X.X.X.X.X.X.X.XO O O - x B V m ; .X.X.X.X.X.X.X.X.X.X",
".X.X.X.X.X.X.X.X.X.X.X.X.X.X.X.X+ 4 m M 1 X .X.X.X.X.X.X.X.X.X.X",
".X.X.X.X.X.X.X.X.X.X.X.X.X.X.X.X.Xy u w # .X.X.X.X.X.X.X.X.X.X.X",
".X.X.X.X.X.X.X.X.X.X.X.X.X.X.X.X.X7 p p 6 .X.X.X.X.X.X.X.X.X.X.X",
".X.X.X.X.X.X.X.X.X.X.X.X.X.X.X.X.X.X    .X.X.X.X.X.X.X.X.X.X.X.X",
".X.X.X.X.X.X.X.X.X.X.X.X.X.X.X.X.X.X.X.X.X.X.X.X.X.X.X.X.X.X.X.X"
};
