/* XPM */
static char *result[] = {
/* columns rows colors chars-per-pixel */
"32 32 195 2 ",
"   c #070809",
".  c #090A0B",
"X  c #120F0C",
"o  c #0B0F12",
"O  c #0B1013",
"+  c #1A150E",
"@  c #291512",
"#  c #381817",
"$  c #2E241E",
"%  c #37251A",
"&  c #1F2527",
"*  c #1B2B36",
"=  c #2A2C2B",
"-  c #262426",
";  c #332A24",
":  c #3A2D23",
">  c #392829",
",  c #37362E",
"<  c #282C36",
"1  c #3B2E3F",
"2  c #2B3338",
"3  c #3C3B39",
"4  c #313A3C",
"5  c #4C1919",
"6  c #4C3D1A",
"7  c #4C2C2E",
"8  c #432426",
"9  c #562A27",
"0  c #493425",
"q  c #43342A",
"w  c #543C2D",
"e  c #452930",
"r  c #4A3935",
"t  c #5B363C",
"y  c #672F2B",
"u  c #6A3435",
"i  c #783736",
"p  c #5D552E",
"a  c #4D463C",
"s  c #5E4A3A",
"d  c #6C4F3D",
"f  c #674638",
"g  c #685627",
"h  c #776324",
"j  c #283843",
"k  c #333D41",
"l  c #433140",
"z  c #493341",
"x  c #543642",
"c  c #5D3843",
"v  c #663D44",
"b  c #733A40",
"n  c #35454D",
"m  c #324D62",
"M  c #35526A",
"N  c #3C5D77",
"B  c #375974",
"V  c #5C4F59",
"C  c #555257",
"Z  c #4D4843",
"A  c #654C45",
"S  c #664748",
"D  c #7B4345",
"F  c #7A474B",
"G  c #6F594F",
"H  c #73554B",
"J  c #7A5B44",
"K  c #634A50",
"L  c #6B515D",
"P  c #795354",
"I  c #7E604E",
"U  c #7C665B",
"Y  c #756255",
"T  c #785965",
"R  c #6A626A",
"E  c #7E6A67",
"W  c #79666E",
"Q  c #796768",
"!  c #786779",
"~  c #803F1A",
"^  c #833132",
"/  c #923332",
"(  c #8F6D1A",
")  c #99443C",
"_  c #916C2C",
"`  c #A56822",
"'  c #8E4848",
"]  c #944642",
"[  c #9B4B47",
"{  c #895B4C",
"}  c #9E514F",
"|  c #895451",
" . c #825551",
".. c #985A56",
"X. c #AE4D45",
"o. c #A24D47",
"O. c #AA524C",
"+. c #B15149",
"@. c #B7544A",
"#. c #AE5A54",
"$. c #AC5959",
"%. c #B35C56",
"&. c #966F47",
"*. c #846C5B",
"=. c #8A6858",
"-. c #926757",
";. c #9F775A",
":. c #9C785F",
">. c #A46854",
",. c #A8795F",
"<. c #866C65",
"1. c #8A6F6B",
"2. c #9E6C65",
"3. c #8A736E",
"4. c #987A67",
"5. c #8A6D75",
"6. c #9D6F79",
"7. c #86727E",
"8. c #9B7277",
"9. c #AC646E",
"0. c #A77C64",
"q. c #AD6D77",
"w. c #B26D71",
"e. c #B37378",
"r. c #CA5E52",
"t. c #C25D53",
"y. c #CD6256",
"u. c #C26158",
"i. c #D3665A",
"p. c #D7695C",
"a. c #DD6B5D",
"s. c #E46E5F",
"d. c #CD6F68",
"f. c #CF7F7E",
"g. c #E66F60",
"h. c #E67263",
"j. c #E87061",
"k. c #E87A6C",
"l. c #E87F72",
"z. c #9A8578",
"x. c #B58566",
"c. c #AB8773",
"v. c #B68A74",
"b. c #BA937A",
"n. c #C5997C",
"m. c #E38178",
"M. c #D0A07E",
"N. c #797483",
"B. c #927787",
"V. c #B37D86",
"C. c #918380",
"Z. c #8F8298",
"A. c #9F929D",
"S. c #968791",
"D. c #A78F80",
"F. c #B49C8F",
"G. c #A38B9F",
"H. c #B58895",
"J. c #A2959F",
"K. c #9F94A0",
"L. c #A195A0",
"P. c #AB97A8",
"I. c #B699AC",
"U. c #B997A7",
"Y. c #A099B3",
"T. c #B2A3BD",
"R. c #C2888A",
"E. c #C69E84",
"W. c #C59E8E",
"Q. c #D4999C",
"!. c #E59690",
"~. c #CAA48B",
"^. c #DBB49E",
"/. c #D6B096",
"(. c #E5A39F",
"). c #E9BC9D",
"_. c #C49CA5",
"`. c #DCBAA4",
"'. c #D8B6A1",
"]. c #D8B7B8",
"[. c #C3A5B2",
"{. c #E9BDA0",
"}. c #E5A7A5",
"|. c #EAC1A6",
" X c #EBC5AD",
".X c #E6C1A8",
"XX c #F3C9B0",
"oX c #AEA9C1",
"OX c #BCB5CD",
"+X c #BCB6D2",
"@X c #BFBBD2",
"#X c #B7AEC9",
"$X c #DABCC2",
"%X c #C1BED4",
"&X c None",
/* pixels */
"&X&X&X&X&X&X&X&X&X&X&X&X&X&X&X&X&X&X&X&X&X&X&X&X&X&X&X&X&X&X&X&X",
"&X&X&X&X&X&X&X&X&X&X&X&X&Xk 1 1 1 1 1 1 k &X&X&X&X&X&X&X&X&X&X&X",
"&X&X&X&X&X&X&X&X&X&X&X&X&Xk l l l l l l l &X&X&X&X&X&X&X&X&X&X&X",
"&X&X&X&X&X&X&X&X&X&X&Xx ' $.%.%.%.%.%.%.} z z &X&X&X&X&X&X&X&X&X",
"&X&X&X&X&X&X&X&X&X&XD } u.p.a.s.a.a.s.a.i.#.' x &X&X&X&X&X&X&X&X",
"&X&X&X&X&X&X&X&X&X&X' t.a.s.j.j.j.j.j.j.s.p.+.c &X&X&X&X&X&X&X&X",
"&X&X&X&X&X&X&X&X&Xc } i.g.j.s.j.j.j.j.j.s.s.y.v &X&X&X&X&X&X&X&X",
"&X&X&X&X&X&X&X&X&Xt O.p.s.g.h.k.m.k.k.j.h.s.i.v &X&X&X&X&X&X&X&X",
"&X&X&X&X&X&X&X&X> u } y.s.s.m.(.}.(.!.h.s.s.%.' e &X&X&X&X&X&X&X",
"&X&X&X&X&X&X&X&Xe i o.@.y.d.Q.].$X].].f.r.r.+.[ 9 &X&X&X&X&X&X&X",
"&X&X&X&X&X&X&X&X@ y o.+.+.w.I._.R.R.[.H.X.+.+./ 5 &X&X&X&X&X&X&X",
"&X&X&X&X&X&X&X&X@ 9 ' %.w.H.I.H.e.V.U.I.w.w.O.i @ &X&X&X&X&X&X&X",
"&X&X&X&X&X&X&X&X% e D q.P.#X+XOXOX+X+X+XT.G.} x ; % &X&X&X&X&X&X",
"&X&X&X&X&X&X&X% w f S T Z.oX@X%X@X%X@XOXK.! v S f q &X&X&X&X&X&X",
"&X&X&X&X&X&X&X% d J S K ! S.L.G.K.K.L.A.B.C S A { w &X&X&X&X&X&X",
"&X&X&X&X&X&X&X&Xs A H Y *.<.Q <.3.1.E W B.H =.Z d 0 &X&X&X&X&X&X",
"&X&X&X&X&X&X&X&X$ q J :.c.4.U z.n.v.<.W J.;.x.r $ &X&X&X&X&X&X&X",
"&X&X&X&X&X&X&X&X&X$ H x.~.F.z.W.{.^.D.C.].x.;.: &X&X&X&X&X&X&X&X",
"&X&X&X&X&X&X&X&X&X&X% I E.^.'. XXX X`.'.).,.q &X&X&X&X&X&X&X&X&X",
"&X&X&X&X&X&X&X&X&X&X+ w ,.~.{..X{.{..X/.n.d X &X&X&X&X&X&X&X&X&X",
"&X&X&X&X&X&X&X&X&Xr , g _ -.4.b.~.n.c.*.&.( + &X&X&X&X&X&X&X&X&X",
"&X&X&X&X&X&X&X&X-.G a h ` #.5.E Y U <.z._ p , 3 &X&X&X&X&X&X&X&X",
"&X&X&X&X&X&X&X{ 0.:.s 6 ~ X.9.5.R R 8.>.( Z U A &X&X&X&X&X&X&X&X",
"&X&X&X&X&X&X&X&X>.0.U a 9 / $.B.! 7.e.) f 3 ~.c.-.&X&X&X&X&X&X&X",
"&X&X&X&X&X&X&X&X&X .E C > 9 b L V V P y r ; `.'.0.&X&X&X&X&X&X&X",
"&X&X&X&X&X&X&X&X&X&X= 2 j < < < * - $ - = > W.W.2.&X&X&X&X&X&X&X",
"&X&X&X&X&X&X&X&X&X&XO 2 M N N m j < = & X &X| | &X&X&X&X&X&X&X&X",
"&X&X&X&X&X&X&X&X&X&X&X& n N M * o       &X&X&X&X&X&X&X&X&X&X&X&X",
"&X&X&X&X&X&X&X&X&X&X&Xo - 4 n 3 &X&X&X&X&X&X&X&X&X&X&X&X&X&X&X&X",
"&X&X&X&X&X&X&X&X&X&X&X&X5 ^ i 8 &X&X&X&X&X&X&X&X&X&X&X&X&X&X&X&X",
"&X&X&X&X&X&X&X&X&X&X&X&X# 5 5 &X&X&X&X&X&X&X&X&X&X&X&X&X&X&X&X&X",
"&X&X&X&X&X&X&X&X&X&X&X&X&X&X&X&X&X&X&X&X&X&X&X&X&X&X&X&X&X&X&X&X"
};
