/* XPM */
static char *result[] = {
/* columns rows colors chars-per-pixel */
"32 32 63 1 ",
"  c #239B0D",
". c #309E0E",
"X c #249D15",
"o c #219518",
"O c #239719",
"+ c #20931D",
"@ c #339B13",
"# c #30981A",
"$ c #28A800",
"% c #2BAD03",
"& c #2CB104",
"* c #2DB305",
"= c #2FB607",
"- c #2DB20C",
"; c #2FB40C",
": c #38B30B",
"> c #30B808",
", c #28A010",
"< c #28A513",
"1 c #2DAB15",
"2 c #2AA01D",
"3 c #188028",
"4 c #1D852B",
"5 c #24822C",
"6 c #28802D",
"7 c #238B2D",
"8 c #268E2F",
"9 c #3D8D25",
"0 c #289820",
"q c #2A9822",
"w c #2B9D23",
"e c #2D9825",
"r c #2F9A28",
"t c #339D2D",
"y c #3D8535",
"u c #289030",
"i c #32AA2A",
"p c #2BB52B",
"a c #2FA53F",
"s c #3EB039",
"d c #42BF13",
"f c #48BD15",
"g c #409328",
"h c #488038",
"j c #40AC28",
"k c #48B525",
"l c #4DBB33",
"z c #30C030",
"x c #4BC318",
"c c #4EC61D",
"v c #54C61D",
"b c #58C820",
"n c #55CD28",
"m c #5DCD28",
"M c #5FCF2B",
"N c #63D330",
"B c #68D838",
"V c #209B45",
"C c #28B563",
"Z c #30C444",
"A c #30C858",
"S c #30D080",
"D c None",
/* pixels */
"DDDDDDDDDDDDDDDDDDDDDDDDDDDDDDDD",
"DDDDDDDDDDDDDDDDDDDDDDDDDDDDDDDD",
"DDDDDDDDDDDDDDDDDDDDDDDDDDDDDDDD",
"DDDDDDDDDDDDDDDDDDDDDDDDDDDDDDDD",
"DDDDDDDDDDDDDDD$$DDDDDDDDDDDDDDD",
"DDDDDDDDDDDDDD$$$$DDDDDDDDDDDDDD",
"DDDDDDDDDDDDD$fbbf$DDDDDDDDDDDDD",
"DDDDDD$$$$DDD$fbbf$DDD$$$$DDDDDD",
"DDDDD$$$$$DDD$fbbf$DDD$$$$$DDDDD",
"DDDDDuubbb$0u>xbbx>u0$bbbuuDDDDD",
"DDDDDuuxvb:q7>dxxd>7q:bvxuuDDDDD",
"DDDDDuu>xbbe3>>>>>>3ebbx>uuDDDDD",
"DDDDDDDu1>>+3>>>>>>3+>>1uDDDDDDD",
"DDDDDDD721*X+<->>-<+X*127DDDDDDD",
"DDDDD$$37u$*>3<>><3>*$u73$$DDDDD",
"DDDDh.$78u*=> o++o >=*u87$.hDDDD",
"DDDDh#,www>>>,O++O,>>>www,#hDDDD",
"DDDDDuu>>>>>>u1>>1u>>>>>>uuDDDDD",
"DDDDujkncx>&%1;>>;1%&>xcnkjuDDDD",
"DDDDukbBmb>%$>>>>>>$%>bmBbkuDDDD",
"DDDD3lBBmbu43bbbbbb34ubmBBl3DDDD",
"DDDDCattrey53bMNNMb35yerttaCDDDD",
"DDDDSV3333h63bNBBNb36h3333VSDDDD",
"DDDDSz>hhhh@$3lBBl3$@hhhh>zSDDDD",
"DDDDSZz999gipVsllsVpig999zZSDDDD",
"DDDDDSS$$$>ASSV33VSSA>$$$SSDDDDD",
"DDDDDDDDDDSSSSSSSSSSSSDDDDDDDDDD",
"DDDDDDDDDDSSSSSSSSSSSSDDDDDDDDDD",
"DDDDDDDDDDDDDDDDDDDDDDDDDDDDDDDD",
"DDDDDDDDDDDDDDDDDDDDDDDDDDDDDDDD",
"DDDDDDDDDDDDDDDDDDDDDDDDDDDDDDDD",
"DDDDDDDDDDDDDDDDDDDDDDDDDDDDDDDD"
};
