/* XPM */
static char *_5ac969d25794e17bd09567bec25cc55ArXCLxc1IcE07Jwj[] = {
/* columns rows colors chars-per-pixel */
"32 32 9 1 ",
"  c None",
". c #28A800",
"X c #30B808",
"o c #188028",
"O c #289030",
"+ c #488038",
"@ c #58C820",
"# c #68D838",
"$ c #30D080",
/* pixels */
"              ....              ",
"              ....              ",
"            ..@@@@..            ",
"            ..@@@@..            ",
"  ......    ..@@@@..    ......  ",
"  ......    ..@@@@..    ......  ",
"  OO@@@@..OOXX@@@@XXOO..@@@@OO  ",
"  OO@@@@..OOXX@@@@XXOO..@@@@OO  ",
"  OOXX@@@@ooXXXXXXXXoo@@@@XXOO  ",
"  OOXX@@@@ooXXXXXXXXoo@@@@XXOO  ",
"    OOXXXXooXXXXXXXXooXXXXOO    ",
"    OOXXXXooXXXXXXXXooXXXXOO    ",
"  ..ooOO..XXooXXXXooXX..OOoo..  ",
"  ..ooOO..XXooXXXXooXX..OOoo..  ",
"++..OOOOXXXX..oooo..XXXXOOOO..++",
"++..OOOOXXXX..oooo..XXXXOOOO..++",
"  OOXXXXXXXXOOXXXXOOXXXXXXXXOO  ",
"  OOXXXXXXXXOOXXXXOOXXXXXXXXOO  ",
"OO@@##@@XX..XXXXXXXX..XX@@##@@OO",
"OO@@##@@XX..XXXXXXXX..XX@@##@@OO",
"oo####@@OOoo@@@@@@@@ooOO@@####oo",
"oo####@@OOoo@@@@@@@@ooOO@@####oo",
"$$oooooo++oo@@####@@oo++oooooo$$",
"$$oooooo++oo@@####@@oo++oooooo$$",
"$$XX++++++..oo####oo..++++++XX$$",
"$$XX++++++..oo####oo..++++++XX$$",
"  $$....XX$$$$oooo$$$$XX....$$  ",
"  $$....XX$$$$oooo$$$$XX....$$  ",
"        $$$$$$$$$$$$$$$$        ",
"        $$$$$$$$$$$$$$$$        ",
"                                ",
"                                "
};
