/* XPM */
static char *result[] = {
/* columns rows colors chars-per-pixel */
"32 32 205 2 ",
"   c #3B2C1D",
".  c #433221",
"X  c #483523",
"o  c #513C28",
"O  c #523D29",
"+  c #533D2A",
"@  c #563F2A",
"#  c #56402B",
"$  c #55402C",
"%  c #5A422C",
"&  c #5A422D",
"*  c #5C432D",
"=  c #5C4731",
"-  c #5C4931",
";  c #5F4932",
":  c #5D4A32",
">  c #5D4C34",
",  c #514938",
"<  c #5B4A3C",
"1  c #614730",
"2  c #634830",
"3  c #604A33",
"4  c #664A32",
"5  c #644C33",
"6  c #614F36",
"7  c #664E35",
"8  c #6D4F35",
"9  c #635036",
"0  c #6A5035",
"q  c #695036",
"w  c #625138",
"e  c #66543A",
"r  c #6B5338",
"t  c #6D5338",
"y  c #6A563B",
"u  c #6F5539",
"i  c #6D553B",
"p  c #70583D",
"a  c #215A6A",
"s  c #245F6B",
"d  c #225C6C",
"f  c #385B63",
"g  c #13616D",
"h  c #146572",
"j  c #1C6173",
"k  c #146976",
"l  c #156A78",
"z  c #146D7D",
"x  c #186C78",
"c  c #3A646E",
"v  c #266D78",
"b  c #256D7A",
"n  c #296D7E",
"m  c #336A78",
"M  c #5B4C41",
"N  c #525348",
"B  c #545254",
"V  c #5A5D59",
"C  c #5F5E5F",
"Z  c #605043",
"A  c #645244",
"S  c #685442",
"D  c #6E5E44",
"F  c #605248",
"G  c #745B40",
"H  c #795F41",
"J  c #6C5E52",
"K  c #706142",
"L  c #7F6343",
"P  c #746A48",
"I  c #796B4D",
"U  c #7E734F",
"Y  c #6C6152",
"T  c #796351",
"R  c #726A57",
"E  c #766D54",
"W  c #736B58",
"Q  c #7D7350",
"!  c #7E755B",
"~  c #5A6569",
"^  c #4F6A71",
"/  c #5F6F73",
"(  c #537175",
")  c #59767B",
"_  c #666760",
"`  c #6D6E6D",
"'  c #6D6F6D",
"]  c #766A61",
"[  c #736E70",
"{  c #67767D",
"}  c #777777",
"|  c #7B797B",
" . c #7D787C",
".. c #7C7B7C",
"X. c #7E7C7E",
"o. c #8A6A47",
"O. c #8C6D4C",
"+. c #8F6F4E",
"@. c #816C5B",
"#. c #827453",
"$. c #877D55",
"%. c #8A7959",
"&. c #8A795A",
"*. c #8B7A5A",
"=. c #8C7A5B",
"-. c #8C7C5C",
";. c #8D7D5C",
":. c #987651",
">. c #9A7753",
",. c #7D847D",
"<. c #8B805C",
"1. c #AA835B",
"2. c #938963",
"3. c #978D67",
"4. c #968D68",
"5. c #9D956C",
"6. c #AF8860",
"7. c #A0976E",
"8. c #A39B72",
"9. c #1B7585",
"0. c #1C7786",
"q. c #207888",
"w. c #227B8D",
"e. c #237E8F",
"r. c #237F8F",
"t. c #207E96",
"y. c #5E7A80",
"u. c #5D7789",
"i. c #2A838D",
"p. c #29848E",
"a. c #298391",
"s. c #2E8390",
"d. c #2D8A94",
"f. c #238299",
"g. c #22829A",
"h. c #26859B",
"j. c #24859D",
"k. c #25879F",
"l. c #26869E",
"z. c #2989A1",
"x. c #2B8BA3",
"c. c #2C8CA3",
"v. c #2A8FA7",
"b. c #2D8DA5",
"n. c #378FA6",
"m. c #3090A8",
"M. c #3991A9",
"N. c #3D95AC",
"B. c #359AB1",
"V. c #379BB2",
"C. c #369BB3",
"Z. c #3EA2B6",
"A. c #38A0B8",
"S. c #6A848C",
"D. c #6C868E",
"F. c #6D8790",
"G. c #768A99",
"H. c #7A96AC",
"J. c #659FB4",
"K. c #43A0B6",
"L. c #44A3BB",
"P. c #43AABF",
"I. c #6BA4B9",
"U. c #6DA4B9",
"Y. c #70A7BC",
"T. c #7AA9BD",
"R. c #7FAABE",
"E. c #48B0C0",
"W. c #4AB1C2",
"Q. c #50B2C2",
"!. c #58B8D0",
"~. c #6CADC0",
"^. c #7FAEC2",
"/. c #73B0C6",
"(. c #7AB3C8",
"). c #7AB8CA",
"_. c #808780",
"`. c #80878C",
"'. c #8B898B",
"]. c #898E89",
"[. c #8B918B",
"{. c #8F928F",
"}. c #908E90",
"|. c #989B98",
" X c #9D9C9D",
".X c #9F9D9F",
"XX c #9D99A0",
"oX c #9E9AA1",
"OX c #A19EA4",
"+X c #A8A5AF",
"@X c #AEAEBA",
"#X c #AFAFBB",
"$X c #B1B1BD",
"%X c #B3B2BF",
"&X c #8BBECF",
"*X c #90BECF",
"=X c #82BFD4",
"-X c #B5B6C3",
";X c #B6B7C4",
":X c #BBBCCB",
">X c #BABFCF",
",X c #BABFD0",
"<X c #BCC4D5",
"1X c #BEC4D5",
"2X c None",
/* pixels */
"2X2X2X2X2X2X2X2X2X2X2X2X2X2X2X2X2X2X2X2X2X2X2X2X2X2X2X2X2X2X2X2X",
"2X2X2X2X2X2X2X2X2X2X2X2X2X2X2X2X2X2X2X2X2X2X2X2X2X2X2X2X2X2X2X2X",
"2X2X2X2X2X2X2X2X2X2X2X2X2X2X2X2X2X2X2X2X2X2X2X2X2X2X2X2X2X2X2X2X",
"2X2X2X2X2X2X2X2X2X2X2X2X2Xs.i.2X2X2X2X2X2X2X2X2X2X2X2X2X2X2X2X2X",
"2X2X2X2X2X2X2X2X2X2X2X2Xa.!.W.E.d.2X2X2X2X2X2X2X2X2X2X2X2X2X2X2X",
"2X2X2X2X2X2X2X2X2X2X2Xp.P.!.W.E.E.V.r.2X2X2X2X2X2X2X2X2X2X2X2X2X",
"2X2X2X2X2X2X2X2X2X2Xe.Z.P.!.W.E.E.V.A.A.0.2X2X2X2X2X2X2X2X2X2X2X",
"2X2X2X2X2X2X2X2X2X9.B.Z.P.!.W.E.E.V.A.A.v.h.w./ X.'.2X2X2X2X2X2X",
"2X2X2X2X2X2X2X2Xq.j.C.Z.P.!.W.E.E.V.A.A.v.z.m.S.C }.2X2X2X2X2X2X",
"2X2X2X2X2X2X2Xz c.k.C.Z.P.!.W.E.E.V.A.A.v.z.m.F.| .Xs 2X2X2X2X2X",
"2X2X2X2X2X2Xx g.b.k.C.Z.P.!.W.E.E.V.A.A.v.z.m.) ].[.n l 2X2X2X2X",
"2X2X2X2X2X2Xx g.b.k.C.Z.P.!.W.E.E.V.A.A.v.z.m.^ ` ' d h 2X2X2X2X",
"2X2X2X2X2X2Xx g.b.k.C.Z.P.!.W.E.E.V.A.A.v.z.m.D... Xa g 2X2X2X2X",
"2X2X2X2X2X2Xx g.b.k.C.Z.P.!.W.E.E.V.A.A.v.z.m.S.B '.a g 2X2X2X2X",
"2X2X2X2X2X2Xx g.b.k.C.Z.P.=X&XQ.E.V.A.A.v.z.m.y.{.|.a g 2X2X2X2X",
"2X2X2X2X2X2Xx g.b.k.C.Z.).:X%X<X*XK.A.A.v.z.m.( ,._.a g 2X2X2X2X",
"2X2X2X2X2X2Xx g.b.k.C.~.;XE P R OX1X(.L.v.z.m.m f c j g 2X2X2X2X",
"2X2X2X2X2X2Xx g.b.k./.-X! I D 2.<.W OX1XY.n.m.x.t.b.f.k 2X2X2X2X",
"2X2X2X2X2X2Xx g.b.J.$X! 7.8.8.8.8.5.<.W OX,X^.M.g.m.l.l 2X2X2X2X",
"2X2X2X2X2X2Xx g.I.#XS i p p p p p p p r 5 A oX>XT.N.l.l 2X2X2X2X",
"2X2X2X2X2X2Xv U.@X< # # # # # # # # # # # # O M XX,XR.b 2X2X2X2X",
"2X2X2X2X2X2X[ +XZ : e w = ; q 3 = w $ + + + + $ > F XX .2X2X2X2X",
"2X2X2X2X2X2X2XX 1 K $.Q G H o.L G Q , u.V ~ { N U & * 2X2X2X2X2X",
"2X2X2X2X2X2X2X@ 8 #.8.4.J ] +.:.O.4.Y H.} `.G._ 3.2 8 2X2X2X2X2X",
"2X2X2X2X2X2X2X@ 8 #.8.4.T @.6.1.>.4.-.=.%.&.*.;.3.2 8 2X2X2X2X2X",
"2X2X2X2X2X2X2Xo 4 - y 6 7 t 0 u 7 6 y y y y y y 9 % 4 2X2X2X2X2X",
"2X2X2X2X2X2X2X2X. 2X2X2X2X2X2X2X2X2X2X2X2X2X2X2X2X  . 2X2X2X2X2X",
"2X2X2X2X2X2X2X2X2X2X2X2X2X2X2X2X2X2X2X2X2X2X2X2X2X2X2X2X2X2X2X2X",
"2X2X2X2X2X2X2X2X2X2X2X2X2X2X2X2X2X2X2X2X2X2X2X2X2X2X2X2X2X2X2X2X",
"2X2X2X2X2X2X2X2X2X2X2X2X2X2X2X2X2X2X2X2X2X2X2X2X2X2X2X2X2X2X2X2X",
"2X2X2X2X2X2X2X2X2X2X2X2X2X2X2X2X2X2X2X2X2X2X2X2X2X2X2X2X2X2X2X2X",
"2X2X2X2X2X2X2X2X2X2X2X2X2X2X2X2X2X2X2X2X2X2X2X2X2X2X2X2X2X2X2X2X"
};
