/* XPM */
static char *result[] = {
/* columns rows colors chars-per-pixel */
"32 32 183 2 ",
"   c #171A1C",
".  c #2F1C0E",
"X  c #2B0C14",
"o  c #2F1018",
"O  c #341018",
"+  c #3A250B",
"@  c #2D261A",
"#  c #3F2612",
"$  c #1E2122",
"%  c #1B2933",
"&  c #372B23",
"*  c #3F3722",
"=  c #272F31",
"-  c #202F3A",
";  c #392931",
":  c #243037",
">  c #383736",
",  c #4B1617",
"<  c #491616",
"1  c #521C1D",
"2  c #432C0D",
"3  c #48310F",
"4  c #422B16",
"5  c #4B3C1D",
"6  c #5C361A",
"7  c #523610",
"8  c #623A1C",
"9  c #4D1A26",
"0  c #451420",
"q  c #581A20",
"w  c #47232A",
"e  c #562629",
"r  c #4B322E",
"t  c #482C31",
"y  c #563735",
"u  c #52363B",
"i  c #5F3B38",
"p  c #503E3B",
"a  c #5C3729",
"s  c #76242B",
"d  c #752224",
"f  c #653D26",
"g  c #623B36",
"h  c #613C3A",
"j  c #6C3E3A",
"k  c #692829",
"l  c #684B0D",
"z  c #6F5207",
"x  c #7D590C",
"c  c #664319",
"v  c #6E511C",
"b  c #7B5414",
"n  c #4C4838",
"m  c #6F4529",
"M  c #76482A",
"N  c #7C5421",
"B  c #6E4533",
"V  c #7A5132",
"C  c #243443",
"Z  c #293A47",
"A  c #3A3B46",
"S  c #4A3B44",
"D  c #513541",
"F  c #573C47",
"G  c #6B3E45",
"H  c #733E43",
"J  c #484946",
"K  c #5B4545",
"L  c #524E4A",
"P  c #56464B",
"I  c #5C5049",
"U  c #5A4C56",
"Y  c #664343",
"T  c #764244",
"R  c #7F4243",
"E  c #7D454A",
"W  c #7E484C",
"Q  c #6D594A",
"!  c #6C4852",
"~  c #7F4E52",
"^  c #6E5750",
"/  c #7B5654",
"(  c #796441",
")  c #7D6256",
"_  c #665A6D",
"`  c #785162",
"'  c #7D6668",
"]  c #7D7065",
"[  c #6C6578",
"{  c #716479",
"}  c #7C707F",
"|  c #89272D",
" . c #865915",
".. c #936A0C",
"X. c #976A11",
"o. c #986814",
"O. c #A77D03",
"+. c #A87414",
"@. c #844D26",
"#. c #814C2A",
"$. c #895128",
"%. c #834343",
"&. c #834749",
"*. c #81484C",
"=. c #944D4C",
"-. c #9C4945",
";. c #9C504E",
":. c #8F5B58",
">. c #985A54",
",. c #A24C47",
"<. c #AA4E47",
"1. c #A54C4A",
"2. c #AB554F",
"3. c #B25149",
"4. c #BE584F",
"5. c #AC5954",
"6. c #AD5452",
"7. c #B15B55",
"8. c #B95C54",
"9. c #976A48",
"0. c #987248",
"q. c #996B53",
"w. c #A47452",
"e. c #815F6C",
"r. c #9F5C6B",
"t. c #946564",
"y. c #837165",
"u. c #927D6D",
"i. c #80697F",
"p. c #877975",
"a. c #AC656E",
"s. c #B56B6B",
"d. c #A77B75",
"f. c #C25A4F",
"g. c #C25B50",
"h. c #C66257",
"j. c #D46659",
"k. c #D5685C",
"l. c #DD6A5C",
"z. c #E66F5F",
"x. c #CE7168",
"c. c #D87065",
"v. c #E46F60",
"b. c #E77263",
"n. c #E87060",
"m. c #E07C70",
"M. c #B68609",
"N. c #9E8675",
"B. c #A7836F",
"V. c #B78567",
"C. c #B68979",
"Z. c #C5906B",
"A. c #CA956F",
"S. c #DF837A",
"D. c #CB997D",
"F. c #D09F7C",
"G. c #D5A07C",
"H. c #7D7484",
"J. c #827689",
"K. c #997782",
"L. c #91869C",
"P. c #BB8288",
"I. c #A9839A",
"U. c #B89898",
"Y. c #9F9AA9",
"T. c #B990A2",
"R. c #AA99B0",
"E. c #B3A2AE",
"W. c #A8A0B2",
"Q. c #B2ACBB",
"!. c #C88989",
"~. c #C89697",
"^. c #DC9691",
"/. c #D2A78D",
"(. c #CFA794",
"). c #D0AE98",
"_. c #E1B496",
"`. c #C4A2B0",
"'. c #D6B8A5",
"]. c #E4BFA9",
"[. c #E7C1A9",
"{. c #C6B7C9",
"}. c None",
/* pixels */
"}.}.}.}.}.}.}.}.}.}.}.}.}.}.}.}.}.}.}.}.}.}.}.}.}.}.}.}.}.}.}.}.",
"}.}.}.}.}.}.}.}.}.}.}.}.}.}.}.}.}.}.}.}.}.}.}.}.}.}.}.}.}.}.}.}.",
"}.}.}.}.}.}.}.}.}.}.}.}.T E *.*.*.*.*.W }.}.}.}.}.}.}.}.}.}.}.}.",
"}.}.}.}.}.}.}.}.}.}.}.*.;.5.7.7.7.7.7.5.E G }.}.}.}.}.}.}.}.}.}.",
"}.}.}.}.}.}.}.}.}.}.*.5.g.j.l.l.l.c.l.k.5.=.G }.}.}.}.}.}.}.}.}.",
"}.}.}.}.}.}.}.}.}.! >.h.v.v.n.n.n.n.n.z.k.7.&.}.}.}.}.}.}.}.}.}.",
"}.}.}.}.}.}.}.}.}.` s.c.b.n.z.z.n.n.n.n.z.j.=.G }.}.}.}.}.}.}.}.",
"}.}.}.}.}.}.}.}._ K.!.S.b.v.z.z.n.n.n.n.z.l.2.H }.}.}.}.}.}.}.}.",
"}.}.}.}.}.}.}.[ H.K.~.^.m.v.z.z.z.z.z.z.v.l.3.H D }.}.}.}.}.}.}.",
"}.}.}.}.}.}.H.Y.E.U.~.^.x.j.z.l.l.z.l.z.l.g.1.H D }.}.}.}.}.}.}.",
"}.}.}.}.}.}.J.Q.{.`.P.s.8.4.f.f.f.f.f.f.f.3.1.H D }.}.}.}.}.}.}.",
"}.}.}.}.}.}.H.R.{.T.a.2.3.3.3.3.3.3.3.3.3.<.-.H u }.}.}.}.}.}.}.",
"}.}.}.}.}.}.[ L.R.I.r.;.1.<.<.<.<.2.<.<.<.,.#.g r }.}.}.}.}.}.}.",
"}.}.}.}.}.}.}.{ J.i.` T R %.%.%.| *.%.%.%.R G a }.}.}.}.}.}.}.}.",
"}.}.}.}.}.}.}.}.F F S S F F u y y y i i h g f f }.}.}.}.}.}.}.}.",
"}.}.}.}.}.}.}.}.T j u U { :.B m M M M #.#.m 8 }.}.}.}.}.}.}.}.}.",
"}.}.}.}.}.}.}.}.:.q.) p.U.C.w.w.V.9.8 $.@.6 . }.}.}.}.}.}.}.}.}.",
"}.}.}.}.}.}.}.}.D./.).'.]._.F.A.Z.0.8 $.@.6 }.}.}.}.}.}.}.}.}.}.",
"}.}.}.}.}.}.}.}.}.C.(.].[._.G.Z.w.V 8 2 4 }.}.}.}.}.}.}.}.}.}.}.",
"}.}.}.}.}.}.}.}.}.}.B.C.C.V.V.q.V 8 c z 3 }.}.}.}.}.}.}.}.}.}.}.",
"}.}.}.}.}.}.}.}.}.}.}.:.t.d.B.9.N b ..M.x }.}.}.}.}.}.}.}.}.}.}.",
"}.}.}.}.}.}.}.}.}.}.}.E ~ ' ] ( v  .M.M.X.7 }.}.}.}.}.}.}.}.}.}.",
"}.}.}.}.}.}.}.}.}.}.}.i i P L n 5 l O.+.X.2 }.}.}.}.}.}.}.}.}.}.",
"}.}.}.}.}.}.}.}.}.}.> p B L A > @ 3 o.+.X.+ }.}.}.}.}.}.}.}.}.}.",
"}.}.}.}.}.}.}.}.}.}.> I y.] L = $ @ c X. .# }.}.}.}.}.}.}.}.}.}.",
"}.}.}.}.}.}.}.}.}.9 t ^ N.u.L : - : * l 6 1 }.}.}.}.}.}.}.}.}.}.",
"}.}.}.}.}.}.}.}.O 9 e Y ) Q > % C Z A # q s 1 }.}.}.}.}.}.}.}.}.",
"}.}.}.}.}.}.}.}.X 0 9 t r &     % C A a s | 1 }.}.}.}.}.}.}.}.}.",
"}.}.}.}.}.}.}.}.}.}.O }.}.}.}.}.}.}.; k s d < }.}.}.}.}.}.}.}.}.",
"}.}.}.}.}.}.}.}.}.}.}.}.}.}.}.}.}.}.}., , , }.}.}.}.}.}.}.}.}.}.",
"}.}.}.}.}.}.}.}.}.}.}.}.}.}.}.}.}.}.}.}.}.}.}.}.}.}.}.}.}.}.}.}.",
"}.}.}.}.}.}.}.}.}.}.}.}.}.}.}.}.}.}.}.}.}.}.}.}.}.}.}.}.}.}.}.}."
};
