/* XPM */
static char *bGVmdDI_[] = {
/* columns rows colors chars-per-pixel */
"32 32 177 2 ",
"   c #150607",
".  c #2A1A09",
"X  c #311D0E",
"o  c #3E1616",
"O  c #33210A",
"+  c #27221C",
"@  c #382111",
"#  c #3D301E",
"$  c #2C2825",
"%  c #372729",
"&  c #3B3426",
"*  c #363835",
"=  c #5D1D1D",
"-  c #482E0F",
";  c #53380D",
":  c #442912",
">  c #492B16",
",  c #59351D",
"<  c #653C1E",
"1  c #431A23",
"2  c #521B25",
"3  c #4E212E",
"4  c #572829",
"5  c #43302B",
"6  c #583522",
"7  c #422D33",
"8  c #493B38",
"9  c #583E3F",
"0  c #533330",
"q  c #672324",
"w  c #623B27",
"e  c #623B31",
"r  c #683B3B",
"t  c #623B3A",
"y  c #7B3D3F",
"u  c #3B403E",
"i  c #584006",
"p  c #67470E",
"a  c #76520E",
"s  c #664417",
"d  c #704817",
"f  c #775119",
"g  c #55412C",
"h  c #42433F",
"j  c #594636",
"k  c #6C432E",
"l  c #694124",
"z  c #714321",
"x  c #7C4A2B",
"c  c #794827",
"v  c #704336",
"b  c #74453C",
"n  c #7A5236",
"m  c #7A5935",
"M  c #746038",
"N  c #323C4E",
"B  c #3E3B50",
"V  c #4A3740",
"C  c #5B3C45",
"Z  c #543F4A",
"A  c #613942",
"S  c #6C3D44",
"D  c #773F44",
"F  c #783B40",
"G  c #2E4253",
"H  c #3C5162",
"J  c #50434A",
"K  c #5F5851",
"L  c #5A495C",
"P  c #644B48",
"I  c #744144",
"U  c #75454A",
"Y  c #794449",
"T  c #7B4346",
"R  c #6A4A55",
"E  c #6C4552",
"W  c #60565E",
"Q  c #5D5466",
"!  c #4A5974",
"~  c #675A6E",
"^  c #6A5E73",
"/  c #745C70",
"(  c #7E6A60",
")  c #6A6170",
"_  c #883131",
"`  c #97373E",
"'  c #84571A",
"]  c #85610A",
"[  c #986A12",
"{  c #A77316",
"}  c #A87513",
"|  c #A37A06",
" . c #874F28",
".. c #835636",
"X. c #8D5F3F",
"o. c #936933",
"O. c #883E44",
"+. c #8B4646",
"@. c #85464A",
"#. c #874546",
"$. c #934E4E",
"%. c #8F525B",
"&. c #AE4F48",
"*. c #AB4945",
"=. c #AF5048",
"-. c #A2534F",
";. c #B15048",
":. c #B9554C",
">. c #A04F5B",
",. c #AB5552",
"<. c #AC5955",
"1. c #B45850",
"2. c #976758",
"3. c #946747",
"4. c #A2734F",
"5. c #AA7A5A",
"6. c #B27F5B",
"7. c #915C6C",
"8. c #8B7E68",
"9. c #986974",
"0. c #93767B",
"q. c #BB6863",
"w. c #A37268",
"e. c #A37662",
"r. c #B27A61",
"t. c #B9777B",
"y. c #C35B50",
"u. c #CD5F53",
"i. c #C16058",
"p. c #DD695B",
"a. c #E86F5F",
"s. c #E16D5E",
"d. c #E9705F",
"f. c #C96F6A",
"g. c #E86F60",
"h. c #E87060",
"j. c #AB8006",
"k. c #B98809",
"l. c #B4825F",
"z. c #9E8C7D",
"x. c #B88F70",
"c. c #B69470",
"v. c #CA9675",
"b. c #D09A72",
"n. c #E98274",
"m. c #D9A179",
"M. c #7A6F83",
"N. c #7B7281",
"B. c #847B8C",
"V. c #B07686",
"C. c #AC7C93",
"Z. c #A67D87",
"A. c #938380",
"S. c #858393",
"D. c #B5888E",
"F. c #BF9181",
"G. c #BF939D",
"H. c #B2959D",
"J. c #B4A190",
"K. c #958BA2",
"L. c #BCB1BE",
"P. c #D38C87",
"I. c #D79E9C",
"U. c #CB9899",
"Y. c #E1958D",
"T. c #DDAB87",
"R. c #CAAA9F",
"E. c #D3AB93",
"W. c #DAB9A4",
"Q. c #EEC3A8",
"!. c #F4CEB4",
"~. c #BDAFC8",
"^. c #C0C1D0",
"/. c #D5C8D8",
"(. c #D2CEE3",
"). c #E4E4F4",
"_. c None",
/* pixels */
"_._._._._._._._._._._._._._._._._._._._._._._._._._._._._._._._.",
"_._._._._._._._._._._._._._._._._._._._._._._._._._._._._._._._.",
"_._._._._._._._._._._._.A I U Y U U Y U _._._._._._._._._._._._.",
"_._._._._._._._._._._.S @.-.<.<.<.<.<.<.$.S _._._._._._._._._._.",
"_._._._._._._._._._.A @.1.p.h.g.h.h.h.s.i.$.I _._._._._._._._._.",
"_._._._._._._._._._.U ,.p.h.h.g.h.h.h.h.d.p.+.C _._._._._._._._.",
"_._._._._._._._._.L 9.f.a.h.g.g.h.h.h.h.d.d.<.T _._._._._._._._.",
"_._._._._._._._.B Q Z.P.n.a.a.a.h.h.h.h.h.h.y.+.A _._._._._._._.",
"_._._._._._._.) S.B.D.E.Y.s.a.a.h.d.d.a.a.p.y.+.A _._._._._._._.",
"_._._._._._._.N.^.L.G.U.P.u.p.p.p.p.p.p.p.u.:.+.A _._._._._._._.",
"_._._._._._._.B.)./.G.V.q.:.y.y.y.y.y.y.y.:.;.+.A _._._._._._._.",
"_._._._._._._.M.(./.V.,.&.=.=.=.=.=.&.&.&.&.&.#.A _._._._._._._.",
"_._._._._._._.~ K.~.C.>.*.&.=.=.;.;.;.;.=.;.+.r 0 _._._._._._._.",
"_._._._._._._._.~ B./ R S D T D D D D D D D b e 6 _._._._._._._.",
"_._._._._._._._._.R C V Z E t e e 9 e v v v k w _._._._._._._._.",
"_._._._._._._._._.T t 8 W 0.b k n n c x x c , > _._._._._._._._.",
"_._._._._._._._._.2.2.( A.R.5.3.6.4...d  .d : . _._._._._._._._.",
"_._._._._._._._._.v.E.R.W.Q.T.v.b.6.X.< c < > _._._._._._._._._.",
"_._._._._._._._._._.P.W.!.Q.T.m.l.X.w > X @ _._._._._._._._._._.",
"_._._._._._._._._._._.w.w.w.r.r...< < a p : _._._._._._._._._._.",
"_._._._._._._._._._._._.%.9.H.x.o.' [ j.j.a _._._._._._._._._._.",
"_._._._._._._._._._._._.Y 7.S.8.m f [ k.k.p _._._._._._._._._._.",
"_._._._._._._._._._._.j D O.J J & # s [ } ; _._._._._._._._._._.",
"_._._._._._._._._._._.J D _ 3 $ u * # d } i _._._._._._._._._._.",
"_._._._._._._._._._._.R Q ! N K J.z.M ] { > _._._._._._._._._._.",
"_._._._._._._._._._.r _ R H G P x.e.g . O $ _._._._._._._._._._.",
"_._._._._._._._._._.4 _  .O.C 8 j j 5 1 2 7 _._._._._._._._._._.",
"_._._._._._._._._._.1 = q q 4 % + + % 1 1 % _._._._._._._._._._.",
"_._._._._._._._._._._._.    _._._._._._.  _._._._._._._._._._._.",
"_._._._._._._._._._._._._._._._._._._._._._._._._._._._._._._._.",
"_._._._._._._._._._._._._._._._._._._._._._._._._._._._._._._._.",
"_._._._._._._._._._._._._._._._._._._._._._._._._._._._._._._._."
};
