/* XPM */
static char *result[] = {
/* columns rows colors chars-per-pixel */
"32 32 185 2 ",
"   c #1F0909",
".  c #191718",
"X  c #2C1118",
"o  c #3C111C",
"O  c #321B1E",
"+  c #290C14",
"@  c #3E2B08",
"#  c #282015",
"$  c #3A2916",
"%  c #161F26",
"&  c #1E2122",
"*  c #19262F",
"=  c #252C2E",
"-  c #252726",
";  c #332828",
":  c #3B3226",
">  c #3B392E",
",  c #312B33",
"<  c #313B3C",
"1  c #3D3F3E",
"2  c #3D373C",
"3  c #57191A",
"4  c #5D1D1D",
"5  c #481B1D",
"6  c #432D09",
"7  c #52370E",
"8  c #422716",
"9  c #50221E",
"0  c #4C3216",
"q  c #543712",
"w  c #593618",
"e  c #633B1D",
"r  c #633D14",
"t  c #5D1E24",
"y  c #501825",
"u  c #681F31",
"i  c #552A2F",
"p  c #5E3825",
"a  c #572F35",
"s  c #433138",
"d  c #56373C",
"f  c #77252D",
"g  c #663C29",
"h  c #7E2F33",
"j  c #653735",
"k  c #733F3C",
"l  c #7D3838",
"z  c #642636",
"x  c #5E410C",
"c  c #75520E",
"v  c #7E580E",
"b  c #654716",
"n  c #774F18",
"m  c #785318",
"M  c #6A4021",
"N  c #754524",
"B  c #794A27",
"V  c #795127",
"C  c #6B4233",
"Z  c #63463B",
"A  c #75413C",
"S  c #794D31",
"D  c #645334",
"F  c #7F5439",
"G  c #2D3D4A",
"H  c #263744",
"J  c #3E3F40",
"K  c #4A3341",
"L  c #6B3D43",
"P  c #613942",
"I  c #723F44",
"U  c #454744",
"Y  c #494245",
"T  c #5E4549",
"R  c #585450",
"E  c #44465B",
"W  c #634443",
"Q  c #6B464D",
"!  c #734044",
"~  c #76464B",
"^  c #6E5D56",
"/  c #725755",
"(  c #6E6457",
")  c #796555",
"_  c #5E5A6D",
"`  c #695968",
"'  c #705666",
"]  c #6D6074",
"[  c #776274",
"{  c #79717F",
"}  c #812528",
"|  c #912C30",
" . c #815A0F",
".. c #845915",
"X. c #8F680C",
"o. c #9C7208",
"O. c #8A6110",
"+. c #966715",
"@. c #A6790A",
"#. c #A17111",
"$. c #875B3B",
"%. c #836239",
"&. c #844B4B",
"*. c #884B4D",
"=. c #874344",
"-. c #964945",
";. c #9B4D4A",
":. c #914747",
">. c #895E41",
",. c #835D50",
"<. c #AD4F48",
"1. c #A14B46",
"2. c #A1504D",
"3. c #B6544C",
"4. c #BB564C",
"5. c #A44F53",
"6. c #BB5D55",
"7. c #B25953",
"8. c #AB5954",
"9. c #8E6053",
"0. c #956B45",
"q. c #AC7C5A",
"w. c #A67552",
"e. c #895E61",
"r. c #8E667D",
"t. c #8D7F71",
"y. c #927A6E",
"u. c #B96D69",
"i. c #A77060",
"p. c #B8706F",
"a. c #AC7A75",
"s. c #C45D53",
"d. c #C56157",
"f. c #CD6155",
"g. c #CD6459",
"h. c #D16256",
"j. c #D5695C",
"k. c #DD6A5C",
"l. c #D1675B",
"z. c #E56E5F",
"x. c #DB6E61",
"c. c #DC756C",
"v. c #E66F60",
"b. c #E67161",
"n. c #E87060",
"m. c #B08108",
"M. c #B2805C",
"N. c #9B817A",
"B. c #B3876B",
"V. c #AF857A",
"C. c #BE8D75",
"Z. c #B5887A",
"A. c #C08D67",
"S. c #D2817B",
"D. c #C99672",
"F. c #E68579",
"G. c #7D7285",
"H. c #887F90",
"J. c #A36F86",
"K. c #AF7E8E",
"L. c #89828D",
"P. c #8D8295",
"I. c #9D909D",
"U. c #B78188",
"Y. c #B99B86",
"T. c #B8A28E",
"R. c #9594A3",
"E. c #A68EA5",
"W. c #A190A7",
"Q. c #B1A9BE",
"!. c #BCABA8",
"~. c #C89E88",
"^. c #D19F83",
"/. c #D2A384",
"(. c #D0AC9C",
"). c #D4A790",
"_. c #D8B09E",
"`. c #CDA3A4",
"'. c #DFB1B0",
"]. c #E5BDA6",
"[. c #DFC1B1",
"{. c #C4BACA",
"}. c #CCC4D5",
"|. c #E0C8C9",
" X c None",
/* pixels */
" X X X X X X X X X X X X X X X X X X X X X X X X X X X X X X X X",
" X X X X X X X X X X X X XK K K K K  X X X X X X X X X X X X X X",
" X X X X X X X X X X X~ &.&.*.*.*.&.~ L  X X X X X X X X X X X X",
" X X X X X X X X XL &.8.g.j.j.j.j.l.s.2.P  X X X X X X X X X X X",
" X X X X X X X X! ;.6.j.z.n.n.n.v.v.v.f.-.K  X X X X X X X X X X",
" X X X X X X X X&.6.k.b.n.n.n.n.n.n.n.x.s.T  X X X X X X X X X X",
" X X X X X X XI 2.g.z.n.n.n.n.n.n.n.n.b.c.E.`  X X X X X X X X X",
" X X X X X X XI 2.f.z.n.n.n.n.n.n.n.b.F.'.J.` E  X X X X X X X X",
" X X X X X X XI ;.s.k.v.n.z.z.z.v.v.c.c.|.p.W.R.G. X X X X X X X",
" X X X X X X XI :.3.s.f.h.h.h.h.s.g.d.u.`.U.{.{.L. X X X X X X X",
" X X X X X X XI :.<.3.4.4.4.4.4.4.4.7.7.p.K.{.}.H. X X X X X X X",
" X X X X X X Xj =.1.<.<.<.<.<.<.<.<.<.<.5.J.{.Q.G. X X X X X X X",
" X X X X X X Xj k $.-.-.-.-.-.-.-.-.-.:.&.r.W.P.]  X X X X X X X",
" X X X X X X Xp j l A A ! l A ! k ! ~ Q d ' [ `  X X X X X X X X",
" X X X X X X Xw p g j C C C C C Z W ' ` ; Q Q  X X X X X X X X X",
" X X X X X X X X0 e N B B S $.>.~ ,.a.L.; 9.&. X X X X X X X X X",
" X X X X X X X X8 w g ..n %.w.M.M.C.(.!./ C.q. X X X X X X X X X",
" X X X X X X X X X9 e e e F w.C.D.D.].[.T.~.C. X X X X X X X X X",
" X X X X X X X X X X7 q b B >.M.D.^.)._.(.V. X X X X X X X X X X",
" X X X X X X X X X X7 c v n V 0.B.V.B.V.Z. X X X X X X X X X X X",
" X X X X X X X X Xr  .o.@.O.m %.y.y.e.&.^  X X X X X X X X X X X",
" X X X X X X X X X7  .@.m.X.b D ( ' Q | 1  X X X X X X X X X X X",
" X X X X X X X X X6 v #.#.c 0 > U U d j <  X X X X X X X X X X X",
" X X X X X X X X X@ c +...0 # - 1 R ( W =  X X X X X X X X X X X",
" X X X X X X X X X8 r v b $ & = 1 N.T.N.. s  X X X X X X X X X X",
" X X X X X X X X Xt 9 8 : < G H 1 ( Z.N.X z X  X X X X X X X X X",
" X X X X X X X X4 f f i 2 G H * & : Z T y u +  X X X X X X X X X",
" X X X X X X X X3 f | | a , %  X X X XO o o  X X X X X X X X X X",
" X X X X X X X X X9 4 9 9  X X X X X X X X X X X X X X X X X X X",
" X X X X X X X X X X     X X X X X X X X X X X X X X X X X X X X",
" X X X X X X X X X X X X X X X X X X X X X X X X X X X X X X X X",
" X X X X X X X X X X X X X X X X X X X X X X X X X X X X X X X X"
};
