/* XPM */
static char *cmlnaHQy[] = {
/* columns rows colors chars-per-pixel */
"32 32 168 2 ",
"   c #2E1C0C",
".  c #2A0E15",
"X  c #281F17",
"o  c #2A1016",
"O  c #391111",
"+  c #362508",
"@  c #2A261F",
"#  c #3B2311",
"$  c #2B2925",
"%  c #332D26",
"&  c #373122",
"*  c #3E2B31",
"=  c #383737",
"-  c #561D1D",
";  c #422C0C",
":  c #4A3407",
">  c #55390E",
",  c #452914",
"<  c #4A3716",
"1  c #59351C",
"2  c #51351A",
"3  c #643C1E",
"4  c #4F1D29",
"5  c #462929",
"6  c #542929",
"7  c #5B3726",
"8  c #473535",
"9  c #702D2E",
"0  c #7D2829",
"q  c #663F28",
"w  c #653A39",
"e  c #6B3D3C",
"r  c #6F303A",
"t  c #773B3E",
"y  c #7F5C09",
"u  c #654519",
"i  c #794F19",
"p  c #78571B",
"a  c #4C453A",
"s  c #544539",
"d  c #6C442F",
"f  c #7D4E2C",
"g  c #7A4824",
"h  c #7C5122",
"j  c #694433",
"k  c #6E403B",
"l  c #664238",
"z  c #74483E",
"x  c #775034",
"c  c #4E3441",
"v  c #513743",
"b  c #543D44",
"n  c #5E3942",
"m  c #6D3D43",
"M  c #633B44",
"N  c #713F45",
"B  c #344E64",
"V  c #45434A",
"C  c #57404B",
"Z  c #404952",
"A  c #514B56",
"S  c #6A4044",
"D  c #69424D",
"F  c #764246",
"G  c #794448",
"H  c #775948",
"J  c #614A5A",
"K  c #634B53",
"L  c #704850",
"P  c #775859",
"I  c #686055",
"U  c #7A6250",
"Y  c #474A61",
"T  c #5C5467",
"R  c #695867",
"E  c #6D6261",
"W  c #746D63",
"Q  c #6B6274",
"!  c #726274",
"~  c #9A3A3B",
"^  c #8A5F11",
"/  c #865A15",
"(  c #936A0B",
")  c #8C6212",
"_  c #996A14",
"`  c #A5770C",
"'  c #AC7911",
"]  c #814C26",
"[  c #885C3B",
"{  c #843A41",
"}  c #8E4645",
"|  c #8D4D4D",
" . c #86444A",
".. c #954846",
"X. c #864C57",
"o. c #995857",
"O. c #AF4F47",
"+. c #AE4F48",
"@. c #A5484B",
"#. c #AD524E",
"$. c #B15048",
"%. c #B7544B",
"&. c #966848",
"*. c #88724C",
"=. c #956053",
"-. c #8A705C",
";. c #BD635B",
":. c #AB7B58",
">. c #83596C",
",. c #9D5D60",
"<. c #A05768",
"1. c #9B6568",
"2. c #8C6976",
"3. c #8C7E7C",
"4. c #AB6D78",
"5. c #A97C78",
"6. c #BE7A78",
"7. c #C35A4F",
"8. c #C25C52",
"9. c #C95E53",
"0. c #CD6357",
"q. c #DD6A5B",
"w. c #D8695B",
"e. c #E56E5E",
"r. c #E86F5F",
"t. c #E7705F",
"y. c #D47B72",
"u. c #E97060",
"i. c #E87768",
"p. c #B58509",
"a. c #AB8154",
"s. c #B2805C",
"d. c #BF8B66",
"f. c #BE8B74",
"g. c #B88C7C",
"h. c #B8967F",
"j. c #C08A69",
"k. c #C39371",
"l. c #D39C75",
"z. c #E28378",
"x. c #7D7086",
"c. c #837487",
"v. c #888292",
"b. c #96849C",
"n. c #A58F8B",
"m. c #BB8988",
"M. c #B9988A",
"N. c #AA949F",
"B. c #B8A998",
"V. c #A29CAC",
"C. c #AA9DB4",
"Z. c #AAA3B1",
"A. c #BFA1B7",
"S. c #C79596",
"D. c #D29F9E",
"F. c #DBAB88",
"G. c #CBA492",
"H. c #DFA09C",
"J. c #DCB499",
"K. c #E7B897",
"L. c #D7BAA8",
"P. c #F1C8AD",
"I. c #EBC6B0",
"U. c #CBB8CA",
"Y. c #D2B9C4",
"T. c #D7D1E4",
"R. c #E3DDEA",
"E. c None",
/* pixels */
"E.E.E.E.E.E.E.E.E.E.E.E.E.E.E.E.E.E.E.E.E.E.E.E.E.E.E.E.E.E.E.E.",
"E.E.E.E.E.E.E.E.E.E.E.E.E.E.E.E.E.E.E.E.E.E.E.E.E.E.E.E.E.E.E.E.",
"E.E.E.E.E.E.E.E.E.E.E.E.E.v v v v v v c E.E.E.E.E.E.E.E.E.E.E.E.",
"E.E.E.E.E.E.E.E.E.E.E.L | | | | | | | G m E.E.E.E.E.E.E.E.E.E.E.",
"E.E.E.E.E.E.E.E.E.n F ..w.u.u.u.i.u.e.8.} n E.E.E.E.E.E.E.E.E.E.",
"E.E.E.E.E.E.E.E.E.N ;.e.u.u.u.u.u.u.e.e.8.G E.E.E.E.E.E.E.E.E.E.",
"E.E.E.E.E.E.E.E.M | q.t.u.u.t.t.u.u.u.u.w.,.J E.E.E.E.E.E.E.E.E.",
"E.E.E.E.E.E.E.E.N %.e.t.t.u.u.u.u.u.u.i.z.m.! A E.E.E.E.E.E.E.E.",
"E.E.E.E.E.E.E.E.N 7.e.e.t.r.r.u.r.r.r.i.D.S.x.x.T E.E.E.E.E.E.E.",
"E.E.E.E.E.E.E.E.m %.9.w.q.q.q.q.q.q.w.y.D.M.N.C.v.Q E.E.E.E.E.E.",
"E.E.E.E.E.E.E.E.m $.%.7.9.9.9.9.9.9.7.8.6.m.U.R.Z.! E.E.E.E.E.E.",
"E.E.E.E.E.E.E.E.m O.O.O.O.+.+.+.+.+.$.$.7.c.U.T.V.Q E.E.E.E.E.E.",
"E.E.E.E.E.E.E.E.w ..+.$.$.$.$.$.$.%.$.@.@.<.D.C.c.T E.E.E.E.E.E.",
"E.E.E.E.E.E.E.E.7 t } } } } } } { ....{  .>.b.x.R E.E.E.E.E.E.E.",
"E.E.E.E.E.E.E.E.7 q k k k e e w w m N D b b R J E.E.E.E.E.E.E.E.",
"E.E.E.E.E.E.E.E.2 1 q j d j j x j l P R V 8 m E.E.E.E.E.E.E.E.E.",
"E.E.E.E.E.E.E.E.E.# 3 h ] ] [ s.&.&.g.n.E H =.E.E.E.E.E.E.E.E.E.",
"E.E.E.E.E.E.E.E.E.  1 g f f &.l.j.k.J.L.M.h.k.E.E.E.E.E.E.E.E.E.",
"E.E.E.E.E.E.E.E.E.E., , , q x a.l.F.K.P.I.G.f.E.E.E.E.E.E.E.E.E.",
"E.E.E.E.E.E.E.E.E.E.E.; > u d x :.d.f.g.M.5.E.E.E.E.E.E.E.E.E.E.",
"E.E.E.E.E.E.E.E.E.E.E.^ ( ( i h a.g.5.1.o.E.E.E.E.E.E.E.E.E.E.E.",
"E.E.E.E.E.E.E.E.E.E.> ( p.` i u U g.2.X.t E.E.E.E.E.E.E.E.E.E.E.",
"E.E.E.E.E.E.E.E.E.E.+ ^ ' ) 2 & a A K G e E.E.E.E.E.E.E.E.E.E.E.",
"E.E.E.E.E.E.E.E.E.E.+ ^ _ u % = = $ r  .e E.E.E.E.E.E.E.E.E.E.E.",
"E.E.E.E.E.E.E.E.E.E.  / _ p I B.W Z Y T K E.E.E.E.E.E.E.E.E.E.E.",
"E.E.E.E.E.E.E.E.E.E.$ ; : 2 U J.-.Z B T G t E.E.E.E.E.E.E.E.E.E.",
"E.E.E.E.E.E.E.E.E.E.= 6 7 5 a x s v L } ~ 9 E.E.E.E.E.E.E.E.E.E.",
"E.E.E.E.E.E.E.E.E.E.8 4 4 * @ @ $ 6 9 0 0 - E.E.E.E.E.E.E.E.E.E.",
"E.E.E.E.E.E.E.E.E.E.E.o o E.E.E.E.E.O O O E.E.E.E.E.E.E.E.E.E.E.",
"E.E.E.E.E.E.E.E.E.E.E.E.E.E.E.E.E.E.E.E.E.E.E.E.E.E.E.E.E.E.E.E.",
"E.E.E.E.E.E.E.E.E.E.E.E.E.E.E.E.E.E.E.E.E.E.E.E.E.E.E.E.E.E.E.E.",
"E.E.E.E.E.E.E.E.E.E.E.E.E.E.E.E.E.E.E.E.E.E.E.E.E.E.E.E.E.E.E.E."
};
