/* XPM */
static char *U3RhcnQ_[] = {
/* columns rows colors chars-per-pixel */
"32 32 196 2 ",
"   c #010101",
".  c #0B0504",
"X  c #0C0B0B",
"o  c #130C0B",
"O  c #1C0B0B",
"+  c #1F130B",
"@  c #141314",
"#  c #1C1511",
"$  c #16181A",
"%  c #200F0E",
"&  c #2B1C1D",
"*  c #231A1B",
"=  c #391F17",
"-  c #23150B",
";  c #31251C",
":  c #191F23",
">  c #2C1B20",
",  c #1B2934",
"<  c #2A2427",
"1  c #2A2C2B",
"2  c #232528",
"3  c #362225",
"4  c #323128",
"5  c #252C36",
"6  c #383638",
"7  c #372836",
"8  c #4A1515",
"9  c #631C1C",
"0  c #492A25",
"q  c #483326",
"w  c #5A3F2E",
"e  c #482F3B",
"r  c #43313F",
"t  c #423C3C",
"y  c #4A3636",
"u  c #5A3637",
"i  c #5C2728",
"p  c #7A2222",
"a  c #62363C",
"s  c #723232",
"d  c #7D3939",
"f  c #5E442D",
"g  c #444639",
"h  c #59463B",
"j  c #674027",
"k  c #775E22",
"l  c #624430",
"z  c #6E503D",
"x  c #75533C",
"c  c #2A3947",
"v  c #393A44",
"b  c #2C3F51",
"n  c #463240",
"m  c #593742",
"M  c #623C44",
"N  c #2C4254",
"B  c #484846",
"V  c #574A44",
"C  c #5D4549",
"Z  c #4C4D53",
"A  c #57565D",
"S  c #5E4A5A",
"D  c #6C4245",
"F  c #674848",
"G  c #74434A",
"H  c #7A4445",
"J  c #62564D",
"K  c #765548",
"L  c #775751",
"P  c #7D5F53",
"I  c #6D5B5A",
"U  c #7B655E",
"Y  c #736155",
"T  c #655669",
"R  c #6C636D",
"E  c #7A636B",
"W  c #7E6C76",
"Q  c #873E2D",
"!  c #853636",
"~  c #9C3A33",
"^  c #B03A39",
"/  c #8F7519",
"(  c #9D7119",
")  c #91433D",
"_  c #B05C23",
"`  c #AD4E31",
"'  c #856A21",
"]  c #906D25",
"[  c #9B713C",
"{  c #AC6D24",
"}  c #894747",
"|  c #9C4943",
" . c #914E4E",
".. c #9E4E4B",
"X. c #8D5955",
"o. c #925D56",
"O. c #9F5452",
"+. c #825C46",
"@. c #A64B46",
"#. c #AF514B",
"$. c #B0534C",
"%. c #BF584E",
"&. c #AB5853",
"*. c #BA5C54",
"=. c #B75954",
"-. c #B74E54",
";. c #9B6E4E",
":. c #846B5A",
">. c #8D695D",
",. c #896550",
"<. c #946D52",
"1. c #9B745D",
"2. c #A17356",
"3. c #9C5C68",
"4. c #8D6A69",
"5. c #9C6D65",
"6. c #9A6660",
"7. c #947569",
"8. c #847678",
"9. c #90717E",
"0. c #A86965",
"q. c #B5696C",
"w. c #B16B72",
"e. c #B2747A",
"r. c #A37964",
"t. c #C0594F",
"y. c #C65D51",
"u. c #C85C50",
"i. c #CA645A",
"p. c #C46259",
"a. c #DC6B5C",
"s. c #D36659",
"d. c #E46D5E",
"f. c #CA726D",
"g. c #CC7F7F",
"h. c #E66F60",
"j. c #E67162",
"k. c #E87060",
"l. c #E87A6D",
"z. c #AB8313",
"x. c #978174",
"c. c #BB8A69",
"v. c #B88867",
"b. c #AC8F7E",
"n. c #AE8B71",
"m. c #B88A7E",
"M. c #C18F6F",
"N. c #C39577",
"B. c #D09E7A",
"V. c #E6867C",
"C. c #E8857A",
"Z. c #7D7A8C",
"A. c #A77B8B",
"S. c #89808E",
"D. c #95848E",
"F. c #89849B",
"G. c #908795",
"H. c #998A98",
"J. c #A48B8E",
"K. c #B48A98",
"L. c #A5999C",
"P. c #AB94AD",
"I. c #B394A6",
"U. c #A29FBD",
"Y. c #BBA7BC",
"T. c #C38A89",
"R. c #E59B96",
"E. c #DAAD8F",
"W. c #D4A686",
"Q. c #D8AE98",
"!. c #D9B39E",
"~. c #C9A38C",
"^. c #E3B08F",
"/. c #E3BB9E",
"(. c #C89EA4",
"). c #CFA4A5",
"_. c #D1A0A9",
"`. c #DAB8A6",
"'. c #D5B0B7",
"]. c #E5BABA",
"[. c #ECC2A7",
"{. c #ECC6AE",
"}. c #E5C5AE",
"|. c #F0C8AF",
" X c #EDCAB2",
".X c #E8C7B0",
"XX c #F6CEB6",
"oX c #BAACC5",
"OX c #B6B7D7",
"+X c #BAB7D4",
"@X c #DCC9D0",
"#X c #D9C2C6",
"$X c #E5C8C3",
"%X c #DADAEC",
"&X c #CACAE2",
"*X c None",
/* pixels */
"*X*X*X*X*X*X*X*X*X*X*X*X*X*X*X*X*X*X*X*X*X*X*X*X*X*X*X*X*X*X*X*X",
"*X*X*X*X*X*X*X*X*X*X*X*X*X*X*X*X*X*X*X*X*X*X*X*X*X*X*X*X*X*X*X*X",
"*X*X*X*X*X*X*X*X*X*X*X}  . . . . . .X.M *X*X*X*X*X*X*X*X*X*X*X*X",
"*X*X*X*X*X*X*X*X*XM G =.i.i.i.i.i.i.p.&.M M *X*X*X*X*X*X*X*X*X*X",
"*X*X*X*X*X*X*X*Xm | =.a.h.k.k.k.j.j.h.i.&.} n *X*X*X*X*X*X*X*X*X",
"*X*X*X*X*X*X*X*XM *.d.h.k.k.k.h.k.k.h.h.s...r *X*X*X*X*X*X*X*X*X",
"*X*X*X*X*X*X*X*XG a.h.k.k.k.h.h.k.k.k.k.a.=.r *X*X*X*X*X*X*X*X*X",
"*X*X*X*X*X*X*Xn H a.d.h.h.l.C.C.C.j.j.j.a.-.m r *X*X*X*X*X*X*X*X",
"*X*X*X*X*X*X*Xa | t.a.d.j.R.#X].].V.h.d.s.$.} e *X*X*X*X*X*X*X*X",
"*X*X*X*X*X*X*Xu @.#.u.u.T.'.#X).@X_.f.u.t.#.) 3 *X*X*X*X*X*X*X*X",
"*X*X*X*X*X*X*X0 | #.#.#.K.'.T.q.(.oXe.$.#.@.) + *X*X*X*X*X*X*X*X",
"*X*X*X*X*X*X. 8 } #.q.q.I.I.w.w.e.oXK.q.0.@.d O *X*X*X*X*X*X*X*X",
"*X*X*X*X*X*X- * u &.oXOXOXOXOXOXOXOXOXOXI.} 7 o ; *X*X*X*X*X*X*X",
"*X*X*X*X*X- l K F M A U.&X%X%X%X%X%XOXA.S F F +.0 *X*X*X*X*X*X*X",
"*X*X*X*X*Xo x ,.C C C A.H.H.G.G.G.L.S.R C C F 2.q *X*X*X*X*X*X*X",
"*X*X*X*X*X*Xw h V >.L 7.U I 7.7.4.I W E K P t x q *X*X*X*X*X*X*X",
"*X*X*X*X*X*X*X* h c.1.~.U U W.W.m.V S.J.1.2.< * *X*X*X*X*X*X*X*X",
"*X*X*X*X*X*X*X*Xq c.N.$Xx.7.|.|.`.J L.`.c.<.o *X*X*X*X*X*X*X*X*X",
"*X*X*X*X*X*X*X*X*X; c.}.}..XXXXXXX}. XE.<.# *X*X*X*X*X*X*X*X*X*X",
"*X*X*X*X*X*X*X*X*X$ L c./. X[.^.XX|.E.x.h X *X*X*X*X*X*X*X*X*X*X",
"*X*X*X*X*X*X*X*X$ 4 ] ;.4.b.W.B.W.x.<.[ k < X *X*X*X*X*X*X*X*X*X",
"*X*X*X*X*X*X*Xy 1 g z.` 4.W :.,.:.8.o.( / 6 1 *X*X*X*X*X*X*X*X*X",
"*X*X*X*X*X*X6.>.J g / ` q.A.A B R J.-._ ' g Y 5.*X*X*X*X*X*X*X*X",
"*X*X*X*X*XH m.E.n.g j ~ ^ w.F.A P.-.^ ) f J W.!.5.*X*X*X*X*X*X*X",
"*X*X*X*X*XH m.!.b.@ @ y ! 3.Z.Z H.@.s 3 $ y `.Q.5.*X*X*X*X*X*X*X",
"*X*X*X*X*X*XX.o.D @ N 2 & > 2 $ 5 > * c N & o.>.*X*X*X*X*X*X*X*X",
"*X*X*X*X*X*X*X*X*XX n 6 v b c 5 b b 6 n 6 o *X*X*X*X*X*X*X*X*X*X",
"*X*X*X*X*X*X*X*X*Xo s ! e 5 , : , 5 a ! i . *X*X*X*X*X*X*X*X*X*X",
"*X*X*X*X*X*X*X*X*XO p p 8 X       X 9 p 9 *X*X*X*X*X*X*X*X*X*X*X",
"*X*X*X*X*X*X*X*X*X*X    *X*X*X*X*X*X*X  *X*X*X*X*X*X*X*X*X*X*X*X",
"*X*X*X*X*X*X*X*X*X*X*X*X*X*X*X*X*X*X*X*X*X*X*X*X*X*X*X*X*X*X*X*X",
"*X*X*X*X*X*X*X*X*X*X*X*X*X*X*X*X*X*X*X*X*X*X*X*X*X*X*X*X*X*X*X*X"
};
