/* XPM */
static char *_5104b057a264755e9d896669fc1e6a3MaJAiqj2Iw72SEAk[] = {
/* columns rows colors chars-per-pixel */
"32 32 120 2 ",
"   c None",
".  c #000000",
"X  c #0C0C0A",
"o  c #031709",
"O  c #0D1D11",
"+  c #181B15",
"@  c #201D17",
"#  c #04240F",
"$  c #112716",
"%  c #063516",
"&  c #073817",
"*  c #093618",
"=  c #073B18",
"-  c #093F1B",
";  c #18321E",
":  c #113E1F",
">  c #2A241C",
",  c #212B1B",
"<  c #153D20",
"1  c #352E23",
"2  c #253F24",
"3  c #3B3326",
"4  c #363C25",
"5  c #44392A",
"6  c #493C2D",
"7  c #09451D",
"8  c #09491F",
"9  c #0F4621",
"0  c #0A4B20",
"q  c #114622",
"w  c #1D4021",
"e  c #124B21",
"r  c #0A5322",
"t  c #0B5B25",
"y  c #0C5D28",
"u  c #125927",
"i  c #16572A",
"p  c #1D532B",
"a  c #135D2A",
"s  c #1D5B2B",
"d  c #214528",
"f  c #254E2C",
"g  c #2D482D",
"h  c #255D2E",
"j  c #32532D",
"k  c #265431",
"l  c #365636",
"z  c #0C6426",
"x  c #0C6B27",
"c  c #0C6329",
"v  c #0D6B2C",
"b  c #18602C",
"n  c #0D742B",
"m  c #0E7B2D",
"M  c #1C752F",
"N  c #0E6F30",
"B  c #146730",
"V  c #146A31",
"C  c #1E6931",
"Z  c #0E7432",
"A  c #0F7A34",
"S  c #1B7234",
"D  c #117C37",
"F  c #187C31",
"G  c #107F38",
"H  c #226130",
"J  c #286D34",
"K  c #38643A",
"L  c #267136",
"P  c #2F763D",
"I  c #307D3C",
"U  c #4E452E",
"Y  c #53422E",
"T  c #574631",
"R  c #5A4531",
"E  c #5F4A31",
"W  c #634E34",
"Q  c #665038",
"!  c #6B533A",
"~  c #78613A",
"^  c #896D3E",
"/  c #0E822D",
"(  c #0F8B2F",
")  c #0F8431",
"_  c #0F8D30",
"`  c #148231",
"'  c #188030",
"]  c #118D33",
"[  c #1C8E36",
"{  c #108238",
"}  c #0F9030",
"|  c #109432",
" . c #1B9A39",
".. c #23823A",
"X. c #249E3E",
"o. c #25AB3F",
"O. c #308B42",
"+. c #338A44",
"@. c #388A46",
"#. c #2E9542",
"$. c #269F40",
"%. c #329D4A",
"&. c #28A041",
"*. c #2AA042",
"=. c #2CA143",
"-. c #2EA245",
";. c #30A346",
":. c #34A449",
">. c #36A54A",
",. c #38A64B",
"<. c #39A14C",
"1. c #3BA14D",
"2. c #3AA44E",
"3. c #3CA54F",
"4. c #3CA84E",
"5. c #3EA84F",
"6. c #2DB244",
"7. c #3EA750",
"8. c #40A951",
"9. c #42AA52",
/* pixels */
"                                                                ",
"                                                                ",
"                          K J 3.#.K K                           ",
"                      l I ;.8. .4.9.*.[ h                       ",
"                    P 8.9.9.9.8.-.4.9.;.| `                     ",
"                  @.9.9.9.9.9.9.X.4.9.9.=.M s                   ",
"                m C ..9.9.,.| X.9.>.4.-. .| x                   ",
"            ) ) | ....8.9.9.X.:.9.>. .| | | / r r               ",
"        Z ) ] } | L <.,.8.9.9.8.-. ._ z x n z z y t 8           ",
"        m | n n / ' C S 1.%.8.9.&.| ) r 8 t z m v c 0           ",
"          z n n m n t 8 i V ..8.=.} } z 8 8 n | } m y           ",
"        / ( ( A | ( z 8 7 7 7 e x m y r 8 8 t ( ( x r           ",
"        H F ( _ ] / r 8 7 % % % & 8 8 8 8 t y r r 8 8           ",
"        g ` | n n ( m r 8 = % % & = 7 r m } } m r 0 8           ",
"        f ] | | ] | } x r t % % % 8 t r ] | | ] ` d             ",
"          a m m ( | | ( ( | / r v ( } ( | | ] { { k             ",
"            p y v m } _ ) ( A v A { } } ] { G Z s               ",
"            D B t c v v v c c c v { { { { { { c 0 0             ",
"            v A A v t y y t y r N Z { A N N a 0 7               ",
"              < B G { { N A N Z Z y y 0 8 8 8 * *               ",
"              . < B Z Z { { s j < 9 q q q : # . .               ",
"            . . . O * i s h U T T 4 2 < $ o . . . .             ",
"          . . . . . + 6 R W Y Y 6 R ! Q 1 . . . . .             ",
"          . . . . . X 3 3 6 W E W Y 4 5 > . . . . .             ",
"          . . . . . . . . X T ^ ~ , . . . . . . . .             ",
"            . . . . . . . . @ T 4 . . . . . . . . .             ",
"            . . . . . . . . . . . . . . . . . . .               ",
"              . . . . . . . . . . . . . . . . .                 ",
"                  . . . . . . . . . . . . . .                   ",
"                      . . . . . . . . .                         ",
"                                                                ",
"            6.6.                                                "
};
