/* XPM */
static char *result[] = {
/* columns rows colors chars-per-pixel */
"32 32 120 2 ",
"   c #130F0B",
".  c #1E1712",
"X  c #251C15",
"o  c #292019",
"O  c #2A3F29",
"+  c #373123",
"@  c #463326",
"#  c #4A382F",
"$  c #533E31",
"%  c #174A21",
"&  c #1F5829",
"*  c #25402A",
"=  c #254F2D",
"-  c #205327",
";  c #27502C",
":  c #304D33",
">  c #3C4A33",
",  c #375330",
"<  c #395532",
"1  c #325839",
"2  c #157F35",
"3  c #1C7935",
"4  c #167E3A",
"5  c #1B7C39",
"6  c #266031",
"7  c #2C6637",
"8  c #34643D",
"9  c #217131",
"0  c #287237",
"q  c #257B36",
"w  c #297C37",
"e  c #2C743B",
"r  c #247C3A",
"t  c #2A7B3B",
"y  c #30743C",
"u  c #327A3F",
"i  c #5F4638",
"p  c #425038",
"a  c #6D4C38",
"s  c #376340",
"d  c #326A40",
"f  c #3E6B45",
"g  c #357742",
"h  c #3F7446",
"j  c #347A40",
"k  c #397D45",
"l  c #108737",
"z  c #188735",
"x  c #128B35",
"c  c #1A8B35",
"v  c #108239",
"b  c #1B8239",
"n  c #158D39",
"m  c #109432",
"M  c #169835",
"N  c #189837",
"B  c #1A943A",
"V  c #1E9C3A",
"C  c #2A843A",
"Z  c #238D3B",
"A  c #2C8D3C",
"S  c #338D3E",
"D  c #388B3D",
"F  c #23933B",
"G  c #2C923E",
"H  c #249D3E",
"J  c #3F933F",
"K  c #2F8740",
"L  c #2E8E40",
"P  c #338241",
"I  c #3B8546",
"U  c #338C44",
"Y  c #3B8649",
"T  c #2C9341",
"R  c #269E40",
"E  c #299D42",
"W  c #359343",
"Q  c #3A9547",
"!  c #349A45",
"~  c #399C45",
"^  c #3C924A",
"/  c #379A48",
"(  c #3F9C4A",
")  c #2CA243",
"_  c #33A446",
"`  c #3AA243",
"'  c #3AAB47",
"]  c #36A44A",
"[  c #3BA44C",
"{  c #3DAB4D",
"}  c #3EB44C",
"|  c #438D4A",
" . c #449342",
".. c #429C4D",
"X. c #499D49",
"o. c #47A845",
"O. c #4CA14A",
"+. c #42AC4C",
"@. c #4CAA4C",
"#. c #50A746",
"$. c #45B54D",
"%. c #45B94F",
"&. c #4ABB4E",
"*. c #51B34C",
"=. c #54B84D",
"-. c #42AB52",
";. c #46B352",
":. c #4ABD52",
">. c #54BF52",
",. c #58BE52",
"<. c #64BE4F",
"1. c #55C052",
"2. c #5CC252",
"3. c #63C14F",
"4. c #6AC24F",
"5. c #65C352",
"6. c #68C152",
"7. c #72C652",
"8. c #78C752",
"9. c None",
/* pixels */
"9.9.9.9.9.9.9.9.9.9.9.9.9.9.9.9.9.9.9.9.9.9.9.9.9.9.9.9.9.9.9.9.",
"9.9.9.9.9.9.9.9.9.9.9.9.9.9.9.9.9.9.9.9.9.9.9.9.9.9.9.9.9.9.9.9.",
"9.9.9.9.9.9.9.9.9.9.9.9.9.9.9.y j 9.9.9.9.9.9.9.9.9.9.9.9.9.9.9.",
"9.9.9.9.9.9.9.9.9.9.9.9.9.9.9.o.X.9.9.9.9.9.9.9.9.9.9.9.9.9.9.9.",
"9.9.9.9.9.9.9.9.9.9.9.9.9.9.3 7.&.8 9.9.9.9.9.9.9.9.9.9.9.9.9.9.",
"9.9.9.9.9.9.9.9.9.9.9.9.9.9.` 8.1.| 9.9.9.9.9.9.9.9.9.9.9.9.9.9.",
"9.9.9.9.9.9.9.9.9.9.9.9.9.F 5.8.1.-.Z 9.9.9.9.9.9.9.9.9.9.9.9.9.",
"9.9.9.9.9.9.9.9.9.9.D J #.4.5.8.1.;.{ ^ U A 9.9.9.9.9.9.9.9.9.9.",
"9.9.9.9.9.9.9.9.9.9.~ =.2.1.%.8.5.{ -.{ +.Q 9.9.9.9.9.9.9.9.9.9.",
"9.9.9.9.9.9.9.9.9.9.9 A G { _ 6.5._ [ T U 8 9.9.9.9.9.9.9.9.9.9.",
"9.9.9.9.9.9.9.9.9.9.~ ;.) H ;.} { -.R ) -.Q 8 9.9.9.9.9.9.9.9.9.",
"9.9.9.9.9.9.9.9.w @.5.:.:.;.:.;.-.:.;.-.{ ;.+.w 9.9.9.9.9.9.9.9.",
"9.9.9.9.9.9.9.9.9.j +.` :.:.:.:.:.:.;.1.G F h 9.9.9.9.9.9.9.9.9.",
"9.9.9.9.9.9.9.9.9.q c G ` r +.-.' +.r ( G c q 9.9.9.9.9.9.9.9.9.",
"9.9.9.9.9.9.9.9.w ] -.U 4 l 5 R R 5 B l 5 ] E 0 9.9.9.9.9.9.9.9.",
"9.9.9.9.9.9.w #.1.;.;.] m V E l n n V ) m -.-.-.( w 9.9.9.9.9.9.",
"9.9.9.9.9.C *.5.;.:.:._ { %.-.E E { ) -.[ :.;.+.1.{ t 9.9.9.9.9.",
"9.9.9.9.9.9.9.W D 5.:./ ,.:.;.{ -.-.:.:.Q :.:.I | 9.9.9.9.9.9.9.",
"9.9.9.9.9.9.9.t O.@.U  .7.:.$.;.-.$.:.:.W C [ ..f 9.9.9.9.9.9.9.",
"9.9.9.9.9.9.t B Z c 2 <.*._ 7.:.2.:._ -.%.3 5 b b d 9.9.9.9.9.9.",
"9.9.9.9.9.Q ;.-.[ [ z P 4 E 8.%.3.:.) 2 u b m m m E Y 9.9.9.9.9.",
"9.9.9.9.9.9.g C [ [ m N ) m %._ _ } m m x v m c r e 9.9.9.9.9.9.",
"9.9.9.9.9.9.P ( T [ -.! { V l l x x m m x H F C ..k 9.9.9.9.9.9.",
"9.9.9.9.9.9.9.6 / ( Y W { ) ] B M ] N H U t E ^ 1 9.9.9.9.9.9.9.",
"9.9.9.9.9.9.9.% 7 = - [ U T -.T T -.G C / : = 8 O 9.9.9.9.9.9.9.",
"9.9.9.9.9.9.9.9.9.9.9.& + < / > < / > + * 9.9.9.9.9.9.9.9.9.9.9.",
"9.9.9.9.9.9.9.9.9.9.9.X $ $ > a i > # $ X 9.9.9.9.9.9.9.9.9.9.9.",
"9.9.9.9.9.9.9.9.9.9.9.9.9.. X a a X X 9.9.9.9.9.9.9.9.9.9.9.9.9.",
"9.9.9.9.9.9.9.9.9.9.9.9.9.9.9.@ @ 9.9.9.9.9.9.9.9.9.9.9.9.9.9.9.",
"9.9.9.9.9.9.9.9.9.9.9.9.9.9.9.    9.9.9.9.9.9.9.9.9.9.9.9.9.9.9.",
"9.9.9.9.9.9.9.9.9.9.9.9.9.9.9.9.9.9.9.9.9.9.9.9.9.9.9.9.9.9.9.9.",
"9.9.9.9.9.9.9.9.9.9.9.9.9.9.9.9.9.9.9.9.9.9.9.9.9.9.9.9.9.9.9.9."
};
