/* XPM */
static char *result[] = {
/* columns rows colors chars-per-pixel */
"32 32 223 2 ",
"   c #1D1912",
".  c #172C16",
"X  c #073517",
"o  c #262117",
"O  c #2C271B",
"+  c #2E281A",
"@  c #302A1C",
"#  c #342D1D",
"$  c #493E26",
"%  c #4B3F28",
"&  c #0A4D21",
"*  c #0A4C23",
"=  c #0E5D33",
"-  c #385F2F",
";  c #0D632E",
":  c #0E6D2F",
">  c #16692D",
",  c #0E6231",
"<  c #0E6433",
"1  c #0E6533",
"2  c #0E6635",
"3  c #0E6A33",
"4  c #0E6F32",
"5  c #0F6F33",
"6  c #0E6A34",
"7  c #0F6D35",
"8  c #0F6D36",
"9  c #0E7131",
"0  c #0F7232",
"q  c #0F7332",
"w  c #0F7333",
"e  c #0F7731",
"r  c #0F7432",
"t  c #0F7633",
"y  c #0F7034",
"u  c #0F7534",
"i  c #0F7637",
"p  c #0F7737",
"a  c #0F7A30",
"s  c #0F7B30",
"d  c #0F7B31",
"f  c #0F7A32",
"g  c #0F7B32",
"h  c #0F7B33",
"j  c #0F7E30",
"k  c #0F7D32",
"l  c #0F7F32",
"z  c #0F7834",
"x  c #0F7B35",
"c  c #0F7C34",
"v  c #0F7D34",
"b  c #0F7D36",
"n  c #0F7938",
"m  c #127535",
"M  c #1A7434",
"N  c #137C32",
"B  c #157A35",
"V  c #107D37",
"C  c #107E37",
"Z  c #107F37",
"A  c #107F38",
"S  c #107F39",
"D  c #1B7C38",
"F  c #226830",
"G  c #267131",
"H  c #2E7131",
"J  c #54462B",
"K  c #5D4C2E",
"L  c #405129",
"P  c #5A5F2F",
"I  c #604D2B",
"U  c #675C2E",
"Y  c #7A5D2F",
"T  c #7C5E2C",
"R  c #625130",
"E  c #715930",
"W  c #4D6A2E",
"Q  c #53642E",
"!  c #406531",
"~  c #84622C",
"^  c #8B662C",
"/  c #0F8031",
"(  c #0F8331",
")  c #0F8531",
"_  c #0F8731",
"`  c #0F8831",
"'  c #0F8931",
"]  c #108732",
"[  c #108733",
"{  c #108135",
"}  c #108437",
"|  c #108737",
" . c #168735",
".. c #108833",
"X. c #138B33",
"o. c #108C31",
"O. c #108D31",
"+. c #108A36",
"@. c #168A35",
"#. c #108C35",
"$. c #108D35",
"%. c #108F34",
"&. c #198937",
"*. c #108138",
"=. c #108239",
"-. c #108339",
";. c #108538",
":. c #108638",
">. c #188338",
",. c #1C8238",
"<. c #1F813B",
"1. c #1C833B",
"2. c #1C8839",
"3. c #1C8A39",
"4. c #1F8C3D",
"5. c #109131",
"6. c #109133",
"7. c #109631",
"8. c #109432",
"9. c #109532",
"0. c #169435",
"q. c #169935",
"w. c #1F923B",
"e. c #1F913F",
"r. c #1D9B39",
"t. c #1D993A",
"y. c #21863B",
"u. c #22873D",
"i. c #278B3F",
"p. c #228F3D",
"a. c #258D3E",
"s. c #288E3F",
"d. c #28903E",
"f. c #209C3B",
"g. c #239E3D",
"h. c #288D41",
"j. c #249641",
"k. c #249542",
"l. c #269444",
"z. c #2A9141",
"x. c #2B9341",
"c. c #299641",
"v. c #299741",
"b. c #2F9445",
"n. c #299945",
"m. c #2A9946",
"M. c #2B9A46",
"N. c #2B9B46",
"B. c #2C9E46",
"V. c #2E9E47",
"C. c #309645",
"Z. c #309745",
"A. c #309B43",
"S. c #329B46",
"D. c #359B49",
"F. c #369D49",
"G. c #29A042",
"H. c #2BA542",
"J. c #2CA144",
"K. c #2DA046",
"L. c #2FA346",
"P. c #2EA547",
"I. c #2DA843",
"U. c #32A049",
"Y. c #35A148",
"T. c #34A34A",
"R. c #33A448",
"E. c #33A549",
"W. c #36A54A",
"Q. c #38A249",
"!. c #3AA749",
"~. c #38A54C",
"^. c #39A64C",
"/. c #3AA64D",
"(. c #3DA54E",
"). c #3CA54F",
"_. c #36AA49",
"`. c #3CA84E",
"'. c #3DA84F",
"]. c #3DAB4E",
"[. c #37B349",
"{. c #3CB24B",
"}. c #3CB44A",
"|. c #3BB14D",
" X c #3FB34D",
".X c #3CB64D",
"XX c #3FB64F",
"oX c #3FA850",
"OX c #3FA950",
"+X c #43B94E",
"@X c #42AA52",
"#X c #41AD50",
"$X c #43AD52",
"%X c #44AF52",
"&X c #45B252",
"*X c #42B452",
"=X c #46B452",
"-X c #47B752",
";X c #42B950",
":X c #46BA50",
">X c #46B953",
",X c #43BD52",
"<X c #48B952",
"1X c #49BC52",
"2X c #4ABD52",
"3X c #4ABE52",
"4X c #4ABF53",
"5X c #45C051",
"6X c #4BC153",
"7X c #4CC354",
"8X c #4DC555",
"9X c #4DC556",
"0X c #43C852",
"qX c #4BCB57",
"wX c #4EC856",
"eX c #4FCB58",
"rX c #4ECE59",
"tX c #50CE59",
"yX c #52D25A",
"uX c #52D25C",
"iX c #53D55C",
"pX c #54D85D",
"aX c None",
/* pixels */
"aXaXaXaXaXaXaXaXaXaXaXaXaXaXaXaXaXaXaXaXaXaXaXaXaXaXaXaXaXaXaXaX",
"aXaXaXaXaXaXaXaXaXaXaXaXaXaXaXaXaXaXaXaXaXaXaXaXaXaXaXaXaXaXaXaX",
"aXaXaXaXaXaXaXaXaXaXaXaXaXaXD |.,XR.aXaXaXaXaXaXaXaXaXaXaXaXaXaX",
"aXaXaXaXaXaXaXaXaXaXaXaX: d.*XiXpXuXQ.: : aXaXaXaXaXaXaXaXaXaXaX",
"aXaXaXaXaXaXaXaXaXaXaX_.pX<X0XpXpXpX.X8XqX,.aXaXaXaXaXaXaXaXaXaX",
"aXaXaXaXaXaXaXaXaXaX9 XXeX3XyXpXpXpX8X6XeX4.: aXaXaXaXaXaXaXaXaX",
"aXaXaXaXaXaXaXaXaXA.Y.P.5X6X6XwXtX8X3X8X[.M.F.D aXaXaXaXaXaXaXaX",
"aXaXaXaXaXaXaXaX: 1Xk.rXpXeX3X3X3X3X3XpXpX;XE.x.aXaXaXaXaXaXaXaX",
"aXaXaXaXaXaXaXaX: %Xe.eXpX8X8XwX6XeX3XtXiX6XN.z.aXaXaXaXaXaXaXaX",
"aXaXaXaXaXaXaXaXaXD.).B.K.}.pXiXtXpXeXI.K.m.@X<.aXaXaXaXaXaXaXaX",
"aXaXaXaXaXaXaXaXS.6X@X@X@XB.+X:X X3X{.l.@X@X=X-Xs.aXaXaXaXaXaXaX",
"aXaXaXaXaXaXaXy.9X9XoXR.%X'.j.V.T.N.n.%X].U.&X3X!.aXaXaXaXaXaXaX",
"aXaXaXaXaXaXaXaXC.$Xu.>X7X=X@X-X2X&X&X3X2X/.b.%Xi.aXaXaXaXaXaXaX",
"aXaXaXaXaXaXaXa.v.a @X<X3X<X~.4X6X<X~.3X3X%Xh.2.c.D aXaXaXaXaXaX",
"aXaXaXaXaXaX<.@X@XO.b.$X=X1.H.1X3X<X..Z.&X@X2.G.@XD.: aXaXaXaXaX",
"aXaXaXaXaXaXN L.G.5.X.2.2.O.p.#X-X(.` X.2.2.5.0.L.w.: aXaXaXaXaX",
"aXaXaXaXaX0 h / ' p.W.f.g.7.5.&.2.@.7.J.r.L.W.( _ g c aXaXaXaXaX",
"aXaXaXaXaXk 8.f 1 G.@XG.7.r.G.q.7.r.G.q.r.`.@Xd 3 O.6.: aXaXaXaX",
"aXaXaXaXaXk 8.#.i ) 7.( O.@X@X`.L.@X@XW.j 5.7.5 C 8.6.: aXaXaXaX",
"aXaXaXaXaXt *.=.;.u = 8 ) `.@XOX^.@X@XJ.5 2 = | -.=.A aXaXaXaXaX",
"aXaXaXaXaXaXq w t.7.$.S y  .3.>.m 3.3.l p =.#.7.] 4 0 aXaXaXaXaX",
"aXaXaXaXaXaXaXs 7.7.:.:.6.v i n S i i b $.=.%.7.o.aXaXaXaXaXaXaX",
"aXaXaXaXaXaXaXe 6.#.i  .q.#.| 8.7.6.=.7.7., | 7.[ aXaXaXaXaXaXaX",
"aXaXaXaXaXaXaXaXr z = #.7.| x 8.7.6.i %.8.;.< z 0 aXaXaXaXaXaXaX",
"aXaXaXaXaXaXaXaXaXX ; Z | A 7 %.9.+.6 -.} V * aXaXaXaXaXaXaXaXaX",
"aXaXaXaXaXaXaXaXaXaXaX& G ! F B { M - H > X aXaXaXaXaXaXaXaXaXaX",
"aXaXaXaXaXaXaXaXaXaXaX. U E R Q W P R Y L aXaXaXaXaXaXaXaXaXaXaX",
"aXaXaXaXaXaXaXaXaXaXaXaX@ # I ~ ^ T $ O + aXaXaXaXaXaXaXaXaXaXaX",
"aXaXaXaXaXaXaXaXaXaXaXaXaXaXo J K % aXaXaXaXaXaXaXaXaXaXaXaXaXaX",
"aXaXaXaXaXaXaXaXaXaXaXaXaXaXaXaX  aXaXaXaXaXaXaXaXaXaXaXaXaXaXaX",
"aXaXaXaXaXaXaXaXaXaXaXaXaXaXaXaXaXaXaXaXaXaXaXaXaXaXaXaXaXaXaXaX",
"aXaXaXaXaXaXaXaXaXaXaXaXaXaXaXaXaXaXaXaXaXaXaXaXaXaXaXaXaXaXaXaX"
};
