/* XPM */
static char *dHJlZQ__[] = {
/* columns rows colors chars-per-pixel */
"32 32 139 2 ",
"   c #070605",
".  c #1B1913",
"X  c #1E1B14",
"o  c #221F17",
"O  c #0C291E",
"+  c #25231B",
"@  c #2F291E",
"#  c #0F3225",
"$  c #2E2A20",
"%  c #463F2F",
"&  c #134130",
"*  c #134430",
"=  c #134732",
"-  c #114A30",
";  c #124B31",
":  c #134B32",
">  c #134E34",
",  c #1C4931",
"<  c #135032",
"1  c #125033",
"2  c #135333",
"3  c #135533",
"4  c #135435",
"5  c #135634",
"6  c #135635",
"7  c #135834",
"8  c #135B36",
"9  c #145B35",
"0  c #135C36",
"q  c #135D36",
"w  c #135D37",
"e  c #125F38",
"r  c #125F39",
"t  c #2F4231",
"y  c #166137",
"u  c #156237",
"i  c #166337",
"p  c #156437",
"a  c #166436",
"s  c #176737",
"d  c #136238",
"f  c #126239",
"g  c #12633A",
"h  c #166638",
"j  c #12683B",
"k  c #156D3A",
"l  c #126B3C",
"z  c #126C3C",
"x  c #126E3D",
"c  c #146D3C",
"v  c #146F3C",
"b  c #196B38",
"n  c #196E38",
"m  c #15703C",
"M  c #16743D",
"N  c #17743D",
"B  c #18713A",
"V  c #19713A",
"C  c #19723A",
"Z  c #19763C",
"A  c #1F7B3B",
"S  c #19793C",
"D  c #18783D",
"F  c #19783D",
"G  c #1A7A3C",
"H  c #1B7C3C",
"J  c #1B7C3D",
"K  c #1C7C3D",
"L  c #1D7F3C",
"P  c #1D7F3D",
"I  c #237C3A",
"U  c #414030",
"Y  c #4A4130",
"T  c #4F4633",
"R  c #504633",
"E  c #524834",
"W  c #544A36",
"Q  c #5E513A",
"!  c #62543C",
"~  c #1E813C",
"^  c #1F823D",
"/  c #1F813E",
"(  c #20833C",
")  c #20833D",
"_  c #21853D",
"`  c #22863D",
"'  c #23873D",
"]  c #22863E",
"[  c #23883D",
"{  c #258B3D",
"}  c #258A3E",
"|  c #268B3E",
" . c #278D3E",
".. c #288E3E",
"X. c #298F3E",
"o. c #2A923E",
"O. c #2B933E",
"+. c #2C943E",
"@. c #2C943F",
"#. c #2E963F",
"$. c #2F963F",
"%. c #2E973F",
"&. c #2F973F",
"*. c #2F983F",
"=. c #30993F",
"-. c #298F40",
";. c #2C9440",
":. c #309840",
">. c #309940",
",. c #319940",
"<. c #319A41",
"1. c #329B40",
"2. c #339D41",
"3. c #359E41",
"4. c #36A042",
"5. c #37A242",
"6. c #38A242",
"7. c #39A243",
"8. c #38A442",
"9. c #38A443",
"0. c #39A443",
"q. c #3AA643",
"w. c #3BA643",
"e. c #3CA744",
"r. c #3DA744",
"t. c #3DA944",
"y. c #3FA945",
"u. c #3FAB45",
"i. c #41AC45",
"p. c #42AE46",
"a. c #43AE46",
"s. c #44B047",
"d. c #45B147",
"f. c #46B147",
"g. c #4CB849",
"h. c #4EBA4A",
"j. c #5AC650",
"k. c #5FCB52",
"l. c None",
/* pixels */
"l.l.l.l.l.l.l.l.l.l.l.l.l.l.l.l.l.l.l.l.l.l.l.l.l.l.l.l.l.l.l.l.",
"l.l.l.l.l.l.l.l.l.l.l.l.l.l.l.l.l.l.l.l.l.l.l.l.l.l.l.l.l.l.l.l.",
"l.l.l.l.l.l.l.l.l.l.l.l.l.l.l.l.l.l.l.l.l.l.l.l.l.l.l.l.l.l.l.l.",
"l.l.l.l.l.l.l.l.l.l.l.l.l.l.s.j.s.l.l.l.l.l.l.l.l.l.l.l.l.l.l.l.",
"l.l.l.l.l.l.l.l.l.l.l.l.:.5.h.k.h.*.,.l.l.l.l.l.l.l.l.l.l.l.l.l.",
"l.l.l.l.l.l.l.l.l.l.*.t.7.i.h.h.g.i.9.r.:.l.l.l.l.l.l.l.l.l.l.l.",
"l.l.l.l.l.l.l.l.l.l.,.q.t.i.s.h.i.s.t.q.,.l.l.l.l.l.l.l.l.l.l.l.",
"l.l.l.l.l.l.l.l.l.[ ,.s.s.e.r.q.t.i.s.s.:._ l.l.l.l.l.l.l.l.l.l.",
"l.l.l.l.l.l.l.l.{ { $.r.2.7.i.s.i.7.2.r.$.{ { l.l.l.l.l.l.l.l.l.",
"l.l.l.l.l.l.l.l.-.q.=.X.d.t.t.h.t.f.s.o.=.q.-.l.l.l.l.l.l.l.l.l.",
"l.l.l.l.l.l.l.l.=.2.X.o.=.+.7.h.7.$.=.+.X.2.:.l.l.l.l.l.l.l.l.l.",
"l.l.l.l.l.l.M J F F ^ X.$.o.$.2.o.$.$. .^ F Z K M l.l.l.l.l.l.l.",
"l.l.l.l.l.l.b I ^ _ K ,.q.$.$.+.$.=.7.,.K ) ) I b l.l.l.l.l.l.l.",
"l.l.l.l.l.l.l.y L ^ ' 2.{  .8.5.q.~ { 2.' ) L y l.l.l.l.l.l.l.l.",
"l.l.l.l.l.l.l.A { o.) L F _ 2.q.2.~ J ~ ( X.{ K l.l.l.l.l.l.l.l.",
"l.l.l.l.l.l.r F { _ ^ o._ ^ $.q.$.~ _ o.^ X.| Z f l.l.l.l.l.l.l.",
"l.l.l.l.l.w - 3 f x Z ^ _ C { q.[ C [ ^ Z x f 3 - l.l.l.l.l.l.l.",
"l.l.l.l.l.l.& l f x ^ ;.X.C _ ^ _ k  .o.) j y j & l.l.l.l.l.l.l.",
"l.l.l.l.l.l.> f 9 F Z _ m Z { _  .l M _ F C 8 f > l.l.l.l.l.l.l.",
"l.l.l.l.l.l.l.& 5 p s F x c ^ $.^ c x F p y 3 & l.l.l.l.l.l.l.l.",
"l.l.l.l.l.l.l.& s q k p h F m { m L p p n f j & l.l.l.l.l.l.l.l.",
"l.l.l.l.l.l.l.l.> & d q 9 u 9 8 8 h 9 q q * - l.l.l.l.l.l.l.l.l.",
"l.l.l.l.l.l.l.l.l.# > 3 2 4 l f l > 2 4 2 O l.l.l.l.l.l.l.l.l.l.",
"l.l.l.l.l.l.l.l.l.l.l.# & = f x f & & # l.l.l.l.l.l.l.l.l.l.l.l.",
"l.l.l.l.l.l.l.l.l.l.l.Y ! U , x , T ! Y l.l.l.l.l.l.l.l.l.l.l.l.",
"l.l.l.l.l.l.l.l.l.l.l.+ $ W R t R T $ + l.l.l.l.l.l.l.l.l.l.l.l.",
"l.l.l.l.l.l.l.l.l.l.l.l.  @ E Q E X   l.l.l.l.l.l.l.l.l.l.l.l.l.",
"l.l.l.l.l.l.l.l.l.l.l.l.l.l.o % o l.l.l.l.l.l.l.l.l.l.l.l.l.l.l.",
"l.l.l.l.l.l.l.l.l.l.l.l.l.l.l.. l.l.l.l.l.l.l.l.l.l.l.l.l.l.l.l.",
"l.l.l.l.l.l.l.l.l.l.l.l.l.l.l.l.l.l.l.l.l.l.l.l.l.l.l.l.l.l.l.l.",
"l.l.l.l.l.l.l.l.l.l.l.l.l.l.l.l.l.l.l.l.l.l.l.l.l.l.l.l.l.l.l.l.",
"l.l.l.l.l.l.l.l.l.l.l.l.l.l.l.l.l.l.l.l.l.l.l.l.l.l.l.l.l.l.l.l."
};
