/* XPM */
static char *result[] = {
/* columns rows colors chars-per-pixel */
"32 32 184 2 ",
"   c gray5",
".  c #160D08",
"X  c #151B1E",
"o  c #1E1919",
"O  c #2F1C0E",
"+  c #271915",
"@  c #301D10",
"#  c #351418",
"$  c #362315",
"%  c #191F25",
"&  c #2F1D21",
"*  c #1B2429",
"=  c #2C2A25",
"-  c #212426",
";  c #342E2F",
":  c #332925",
">  c #333125",
",  c #3A322E",
"<  c #3B3928",
"1  c #2A2F35",
"2  c #233037",
"3  c #2A3134",
"4  c #393A37",
"5  c #383F3E",
"6  c #4A1B1D",
"7  c #4B3A0F",
"8  c #4F2F18",
"9  c #462D18",
"0  c #49321A",
"q  c #54321A",
"w  c #5B341C",
"e  c #593B15",
"r  c #633E19",
"t  c #551F22",
"y  c #482422",
"u  c #463020",
"i  c #4A302A",
"p  c #553F2F",
"a  c #5A3827",
"s  c #492C34",
"d  c #4E3434",
"f  c #4F3E33",
"g  c #513037",
"h  c #533B31",
"j  c #56393B",
"k  c #6B2D25",
"l  c #662925",
"z  c #6A3F20",
"x  c #643D2A",
"c  c #643C20",
"v  c #753225",
"b  c #742833",
"n  c #653B35",
"m  c #663D3D",
"M  c #693C3B",
"N  c #6A343E",
"B  c #793F3F",
"V  c #3B413D",
"C  c #51451D",
"Z  c #6B4D0C",
"A  c #765706",
"S  c #644313",
"D  c #6E421F",
"F  c #66491F",
"G  c #7F4E19",
"H  c #724717",
"J  c #64561F",
"K  c #755514",
"L  c #7A5312",
"P  c #785813",
"I  c #745B1D",
"U  c #4C4729",
"Y  c #564829",
"T  c #48453D",
"R  c #5A4334",
"E  c #564837",
"W  c #584A3F",
"Q  c #5C5532",
"!  c #6D4121",
"~  c #734421",
"^  c #7D4A25",
"/  c #73452C",
"(  c #69463A",
")  c #744730",
"_  c #75543E",
"`  c #7B6624",
"'  c #2D3541",
"]  c #3B3C49",
"[  c #4F3648",
"{  c #5D3942",
"}  c #643B44",
"|  c #6B3C43",
" . c #713E44",
".. c #3F4A44",
"X. c #354650",
"o. c #444445",
"O. c #534944",
"+. c #5E4644",
"@. c #505240",
"#. c #4E4B59",
"$. c #465353",
"%. c #634541",
"&. c #664945",
"*. c #6D4146",
"=. c #734744",
"-. c #7B4443",
";. c #73434A",
":. c #7B4A46",
">. c #775649",
",. c #746052",
"<. c #862F33",
"1. c #A0581E",
"2. c #956F05",
"3. c #83661C",
"4. c #976A12",
"5. c #9F6E19",
"6. c #966811",
"7. c #9D7013",
"8. c #A87D07",
"9. c #B47D0C",
"0. c #A26F16",
"q. c #A57215",
"w. c #AC7415",
"e. c #824D27",
"r. c #834E28",
"t. c #924E25",
"y. c #815A25",
"u. c #824443",
"i. c #8B4544",
"p. c #8C4A45",
"a. c #834649",
"s. c #814C47",
"d. c #954845",
"f. c #944C4C",
"g. c #9D4F4A",
"h. c #9D4B46",
"j. c #88584D",
"k. c #914E50",
"l. c #835651",
"z. c #9C5251",
"x. c #9B5A51",
"c. c #925F5A",
"v. c #A44C46",
"b. c #AA4F47",
"n. c #A24E4A",
"m. c #AD4F48",
"M. c #AC504A",
"N. c #B4524A",
"B. c #BC584F",
"V. c #A55652",
"C. c #A95753",
"Z. c #A75B51",
"A. c #B45A51",
"S. c #BC5F58",
"D. c #806251",
"F. c #9A6555",
"G. c #956D5A",
"H. c #9D705A",
"J. c #966A62",
"K. c #9A7D65",
"L. c #A6766D",
"P. c #A37D71",
"I. c #C45D52",
"U. c #C95D52",
"Y. c #C96156",
"T. c #CB6459",
"R. c #C7645A",
"E. c #D26357",
"W. c #D56659",
"Q. c #D4695B",
"!. c #DC6B5D",
"~. c #D96759",
"^. c #E46E5F",
"/. c #E66F60",
"(. c #E77060",
"). c #E87060",
"_. c #B88809",
"`. c #BA8B04",
"'. c #C29302",
"]. c #B38679",
"[. c #B59885",
"{. c #CCA992",
"}. c #D7B49F",
"|. c None",
/* pixels */
"|.|.|.|.|.|.|.|.|.|.|.|.|.|.|.|.|.|.|.|.|.|.|.|.|.|.|.|.|.|.|.|.",
"|.|.|.|.|.|.|.|.|.|.|.|.|.;.;.;.;.;.;.;.;.|.|.|.|.|.|.|.|.|.|.|.",
"|.|.|.|.|.|.|.|.|.|.|.;.k.V.C.C.C.V.C.C.z.} { |.|.|.|.|.|.|.|.|.",
"|.|.|.|.|.|.|.|.|.|.a.z.S.Q.!.!.!.!.!.!.R.k.a.{ |.|.|.|.|.|.|.|.",
"|.|.|.|.|.|.|.|.|.:.V.T.!./.).).(.(.).)./.T.A. .|.|.|.|.|.|.|.|.",
"|.|.|.|.|.|.|.|.|.f.I.!.).).).).(.(.).).(.(.~.a.{ |.|.|.|.|.|.|.",
"|.|.|.|.|.|.|.|. .g.Y.^.).).(.).(.).).).(./.!.g.| |.|.|.|.|.|.|.",
"|.|.|.|.|.|.|.|. .g.Y.!././.).).(.(.)./././.Q.b. .|.|.|.|.|.|.|.",
"|.|.|.|.|.|.|.|. .d.B.E.!.^.^.^.(.^.^.^.~.~.I.v.| |.|.|.|.|.|.|.",
"|.|.|.|.|.|.|.|.| i.b.I.U.E.Q.Q.Q.Q.Q.E.U.I.N.d.} |.|.|.|.|.|.|.",
"|.|.|.|.|.|.|.d m -.h.M.N.B.A.Z.x.x.A.B.N.N.b.u.{ d |.|.|.|.|.|.",
"|.|.|.|.|.|.|.h %.=.d.v.b.g.:.&.+.&.:.g.m.v.v.;.&.j |.|.|.|.|.|.",
"|.|.|.|.|.|.|.R =.:.-.i.d.p.=.%.+.%.=.p.n.i.a.m >.R |.|.|.|.|.|.",
"|.|.|.|.|.|.|.p ( ( ( M B u.-.-.=.-.-.-.r.j N h _ h |.|.|.|.|.|.",
"|.|.|.|.|.|.|.|.0 q a a n m m m } ( m M n a ! q u |.|.|.|.|.|.|.",
"|.|.|.|.|.|.|.|.|.$ 8 ! ! ) ) ) / ) ) ) / x q $ |.|.|.|.|.|.|.|.",
"|.|.|.|.|.|.|.|.|.O $ 0 ! ^ r.r.r.r.e.^ ~ q O |.|.|.|.|.|.|.|.|.",
"|.|.|.|.|.|.|.|.|., = $ 9 w ! ^ r.e.~ w 9 @ . |.|.|.|.|.|.|.|.|.",
"|.|.|.|.|.|.|.j.>.O.4 > 0 7 r ! ~ D r e 7 o   |.|.|.|.|.|.|.|.|.",
"|.|.|.|.|.|.|.F.G.,.O.h F P L L K S S K J 3 % |.|.|.|.|.|.|.|.|.",
"|.|.|.|.|.|.|.F.H.D.%.n ^ 6.8.8.2.A Z P E 5 T 4 |.|.|.|.|.|.|.|.",
"|.|.|.|.|.|.|.|.( i y v 1._.`.'.`.2.Z w N T K.W |.|.|.|.|.|.|.|.",
"|.|.|.|.|.|.|.|.|.+ # l t.w.`.'._.6.z k <., {.[.J.|.|.|.|.|.|.|.",
"|.|.|.|.|.|.|.|.|.|.; h y.5.q.q.7.6.e.k b : }.}.L.|.|.|.|.|.|.|.",
"|.|.|.|.|.|.|.|.|.|.1 V Q ` q.q.6.P Y j [ + P.].J.|.|.|.|.|.|.|.",
"|.|.|.|.|.|.|.|.|.|.* ' T Q ` 3.I C > 1 ' o l.F.|.|.|.|.|.|.|.|.",
"|.|.|.|.|.|.|.|.|.|.% 2 X.$.W U U < - % % |.|.|.|.|.|.|.|.|.|.|.",
"|.|.|.|.|.|.|.|.|.|.|.- ] #...3 = |.|.|.|.|.|.|.|.|.|.|.|.|.|.|.",
"|.|.|.|.|.|.|.|.|.|.|.+ s } g & |.|.|.|.|.|.|.|.|.|.|.|.|.|.|.|.",
"|.|.|.|.|.|.|.|.|.|.|.|.6 t 6 |.|.|.|.|.|.|.|.|.|.|.|.|.|.|.|.|.",
"|.|.|.|.|.|.|.|.|.|.|.|.|.|.|.|.|.|.|.|.|.|.|.|.|.|.|.|.|.|.|.|.",
"|.|.|.|.|.|.|.|.|.|.|.|.|.|.|.|.|.|.|.|.|.|.|.|.|.|.|.|.|.|.|.|."
};
