/* XPM */
static char *dXAy[] = {
/* columns rows colors chars-per-pixel */
"32 32 183 2 ",
"   c #0E0F0F",
".  c #100708",
"X  c #1A0F08",
"o  c #100E0B",
"O  c #1B1008",
"+  c #1B1E1D",
"@  c #2F0F0F",
"#  c #22140B",
"$  c #27180C",
"%  c #2A1E16",
"&  c #391818",
"*  c #20211F",
"=  c #2F2611",
"-  c #372716",
";  c #39341E",
":  c #341C22",
">  c #1A2429",
",  c #1A2226",
"<  c #272926",
"1  c #3F272E",
"2  c #3F3C23",
"3  c #272E39",
"4  c #342C33",
"5  c #2F3838",
"6  c #28313C",
"7  c #32363C",
"8  c #383636",
"9  c #481717",
"0  c #471617",
"q  c #4B2D16",
"w  c #442A17",
"e  c #4D3612",
"r  c #4E301F",
"t  c #5E3B16",
"y  c #5D371B",
"u  c #643B1C",
"i  c #693E1E",
"p  c #603D14",
"a  c #511820",
"s  c #462A29",
"d  c #5D262C",
"f  c #463326",
"g  c #4C3323",
"h  c #4C362E",
"j  c #54342E",
"k  c #57382F",
"l  c #5F3D2F",
"z  c #403D37",
"x  c #4C343D",
"c  c #4E3635",
"v  c #5D3C35",
"b  c #51353C",
"n  c #553536",
"m  c #6D2629",
"M  c #643C24",
"N  c #6A3E20",
"B  c #773323",
"V  c #663A3E",
"C  c #663B3D",
"Z  c #713E3B",
"A  c #5F4817",
"S  c #5C4B18",
"D  c #684A09",
"F  c #714E0F",
"G  c #755704",
"H  c #6C4A14",
"J  c #6B421F",
"K  c #714B14",
"L  c #695116",
"P  c #795719",
"I  c #434129",
"U  c #514026",
"Y  c #59412F",
"T  c #5D5225",
"R  c #4E4A3B",
"E  c #5A4232",
"W  c #5F423D",
"Q  c #5C5730",
"!  c #575536",
"~  c #744422",
"^  c #78472E",
"/  c #73452F",
"(  c #6A562B",
")  c #664832",
"_  c #74403C",
"`  c #7B6420",
"'  c #2D3A46",
"]  c #533642",
"[  c #593944",
"{  c #563C45",
"}  c #643D46",
"|  c #6C3C44",
" . c #6D3D48",
".. c #733E43",
"X. c #783F41",
"o. c #37484D",
"O. c #3F5255",
"+. c #434442",
"@. c #4C4241",
"#. c #584543",
"$. c #574B42",
"%. c #585748",
"&. c #6C4642",
"*. c #6D4844",
"=. c #794145",
"-. c #744A45",
";. c #7F4844",
":. c #7E474C",
">. c #6F5141",
",. c #6A5149",
"<. c #765741",
"1. c #7A6A5A",
"2. c #444E61",
"3. c #893C29",
"4. c #86600B",
"5. c #9B6F0C",
"6. c #946B09",
"7. c #997009",
"8. c #987203",
"9. c #8C6D1B",
"0. c #95641A",
"q. c #93721B",
"w. c #AF6F18",
"e. c #A66915",
"r. c #A97613",
"t. c #AE7912",
"y. c #824C26",
"u. c #884F27",
"i. c #92412B",
"p. c #875027",
"a. c #895027",
"s. c #885028",
"d. c #814441",
"f. c #8C4744",
"g. c #82494C",
"h. c #8A4C4D",
"j. c #874A45",
"k. c #944A45",
"l. c #9D4C46",
"z. c #83594B",
"x. c #935B4F",
"c. c #935D50",
"v. c #A14B47",
"b. c #AD4F47",
"n. c #AD4F48",
"m. c #B04F47",
"M. c #B2524A",
"N. c #BA564D",
"B. c #B75951",
"V. c #8E654E",
"C. c #876054",
"Z. c #8A6459",
"A. c #8B6D5A",
"S. c #986857",
"D. c #99745C",
"F. c #BA6357",
"G. c #A3705B",
"H. c #976D64",
"J. c #A97A70",
"K. c #C1594E",
"L. c #C35C51",
"P. c #CA5F54",
"I. c #C76054",
"U. c #CF6255",
"Y. c #C46459",
"T. c #C9655A",
"R. c #D76658",
"E. c #DD6A5C",
"W. c #D56558",
"Q. c #E36D5E",
"!. c #E76F60",
"~. c #E77060",
"^. c #E87060",
"/. c #BC8C06",
"(. c #B4820D",
"). c #C49402",
"_. c #CA9A00",
"`. c #AD917D",
"'. c #B1927B",
"]. c #BC9183",
"[. c #BAA08D",
"{. c #EFCFB7",
"}. c None",
/* pixels */
"}.}.}.}.}.}.}.}.}.}.}.}.}.}.}.}.}.}.}.}.}.}.}.}.}.}.}.}.}.}.}.}.",
"}.}.}.}.}.}.}.}.}.}.}.}.}.}.] ] ] ] }.}.}.}.}.}.}.}.}.}.}.}.}.}.",
"}.}.}.}.}.}.}.}.}.}.}.} :.h.h.h.h.h.h.g.} }.}.}.}.}.}.}.}.}.}.}.",
"}.}.}.}.}.}.}.}.}.}.[ g.Y.^.^.^.^.^.^.T.h.[ ] }.}.}.}.}.}.}.}.}.",
"}.}.}.}.}.}.}.}.}.&.N.E.~.^.^.^.^.^.~.~.!.P.=.}.}.}.}.}.}.}.}.}.",
"}.}.}.}.}.}.}.}.}.g.E.!.^.^.^.^.^.^.^.~.^.E.h.} }.}.}.}.}.}.}.}.",
"}.}.}.}.}.}.}.}. .M.Q.^.^.^.^.~.^.^.^.^.^.!.B.=.}.}.}.}.}.}.}.}.",
"}.}.}.}.}.}.}.}...K.E.~.^.^.^.~.^.^.^.^.~.!.L.=.] }.}.}.}.}.}.}.",
"}.}.}.}.}.}.}.}...N.U.Q.~.~.~.~.^.Q.Q.Q.Q.R.K.=.] }.}.}.}.}.}.}.",
"}.}.}.}.}.}.}.] | n.N.P.R.E.Q.E.Q.Q.Q.E.W.K.m...] }.}.}.}.}.}.}.",
"}.}.}.}.}.}.}.x } l.b.m.M.L.Y.F.F.Y.I.N.b.b.v.| b }.}.}.}.}.}.}.",
"}.}.}.}.}.}.w h ] | b.m.b.l.*.+.+.&.k.b.m.b...[ c s }.}.}.}.}.}.",
"}.}.}.}.}.}.- c Z.V k.v.l.j.#.@.@.#.-.k.v.l.V C.>.f }.}.}.}.}.}.",
"}.}.}.}.}.}.= E S.j V X.f.k.;.;.;.;.j.f._ V j V.<.g }.}.}.}.}.}.",
"}.}.}.}.}.}.}.g ) r j l Z d.d.d.d.=.i.&.v j g ) E }.}.}.}.}.}.}.",
"}.}.}.}.}.}.}.}.# q u M l v v v v v v v M u q $ }.}.}.}.}.}.}.}.",
"}.}.}.}.}.}.}.}.}.X w i y.u.a.a.s.s.s.y.~ q # }.}.}.}.}.}.}.}.}.",
"}.}.}.}.}.}.}.}.}.}.X - y ~ y.a.s.y.~ u w = , }.}.}.}.}.}.}.}.}.",
"}.}.}.}.}.}.}.}.}.}.o = e t u ~ ~ N p e ; < 5 ,.z.}.}.}.}.}.}.}.",
"}.}.}.}.}.}.}.}.}.}., 2 L F t t K H K H U 8 +.A.G.c.}.}.}.}.}.}.",
"}.}.}.}.}.}.}.}.}.8 z R ( P D D 6.7.7.0./ x $.D.G.c.}.}.}.}.}.}.",
"}.}.}.}.}.}.}.}.}.%.1.#.k i G 8.)._./.e.3.d c z.c.}.}.}.}.}.}.}.",
"}.}.}.}.}.}.}.}.Z.`.'._ m B F (.).).).w.i.a . : }.}.}.}.}.}.}.}.",
"}.}.}.}.}.}.}.}.J.{.[._ m 3.P r.r.r.w.0./ s }.}.}.}.}.}.}.}.}.}.",
"}.}.}.}.}.}.}.}.H.].H.x ] W A 4.r.t.q.P @.7 }.}.}.}.}.}.}.}.}.}.",
"}.}.}.}.}.}.}.}.}.S.-.4 6 7 ; S 9.9.` ! o.6 }.}.}.}.}.}.}.}.}.}.",
"}.}.}.}.}.}.}.}.}.}.}.}.> > < I T Q %.O.o., }.}.}.}.}.}.}.}.}.}.",
"}.}.}.}.}.}.}.}.}.}.}.}.}.}.}.}., 5 2.2.3   }.}.}.}.}.}.}.}.}.}.",
"}.}.}.}.}.}.}.}.}.}.}.}.}.}.}.}.}.s | } : }.}.}.}.}.}.}.}.}.}.}.",
"}.}.}.}.}.}.}.}.}.}.}.}.}.}.}.}.}.& 0 0 @ }.}.}.}.}.}.}.}.}.}.}.",
"}.}.}.}.}.}.}.}.}.}.}.}.}.}.}.}.}.}.}.}.}.}.}.}.}.}.}.}.}.}.}.}.",
"}.}.}.}.}.}.}.}.}.}.}.}.}.}.}.}.}.}.}.}.}.}.}.}.}.}.}.}.}.}.}.}."
};
